<svg xmlns="http://www.w3.org/2000/svg" id="Layer_1" data-name="Layer 1" viewBox="0 0 23.8 23.8">
  <defs>
    <style>
      .cls-1{fill:#fff}.cls-2{fill:#e0b624}.cls-5{fill:#8f5927}.cls-6{fill:#b3b3b3}.cls-8{fill:#c3002f}.cls-11{fill:#2e2a25}
    </style>
  </defs>
  <circle cx="11.9" cy="11.9" r="11.9" class="cls-1"/>
  <path d="M12 .1A11.9 11.9 0 1023.9 12 11.91 11.91 0 0012 .1zm-.03 23.6A11.7 11.7 0 1123.67 12a11.71 11.71 0 01-11.7 11.7z" class="cls-2" transform="translate(-.1 -.1)"/>
  <path fill="#0d2240" d="M12 .55a11.47 11.47 0 1011.46 11.47A11.47 11.47 0 0012 .55zm-.03 20.52A9.03 9.03 0 1121 12.04a9.03 9.03 0 01-9.03 9.03z" transform="translate(-.1 -.1)"/>
  <path fill="#67b2e8" d="M13.55 6.46a.85.85 0 00-.83-1.22.85.85 0 00-1.5 0 .85.85 0 00-.69 1.3.85.85 0 00.7 1.35.85.85 0 001.52-.09.85.85 0 00.8-1.34z" transform="translate(-.1 -.1)"/>
  <path d="M11.19 6.17l.06.2h.2l-.14.11.06.22-.17-.12-.19.11.07-.2-.15-.13h.2l.06-.2zm1.42 0l.06.2h.2l-.14.11.06.22-.17-.12-.19.11.08-.2-.16-.13h.2l.06-.2zm.37.6l.06.19h.2l-.14.12.06.22-.17-.12-.19.11.08-.2-.16-.13h.2l.06-.2zm-.69 0l.06.19h.2l-.14.12.06.22-.17-.12-.19.11.08-.2-.16-.13h.2l.06-.2zm-.7 0l.05.19h.2l-.14.12.06.22-.17-.12-.19.11.08-.2-.16-.13h.2l.06-.2zm-.68 0l.06.19h.2l-.15.12.07.22-.17-.12-.2.11.08-.2-.16-.13h.2l.07-.2zm1 .58l.05.19h.2l-.14.12.06.21-.17-.12-.19.12.08-.2-.16-.13h.2l.06-.2zm1.03-1.8l.06.2h.2l-.14.12.06.21-.17-.12-.19.12.08-.2-.16-.13h.2l.06-.2zm-.67 0l.06.2h.2l-.14.12.06.21-.17-.12-.19.12.08-.2-.16-.13h.2l.06-.2zm-.67 0l.06.2h.2l-.14.12.06.21-.17-.12-.19.12.07-.2-.15-.13h.2l.06-.2zm-.68 0l.06.2h.2l-.14.12.06.21-.17-.12-.19.12.08-.2-.16-.13h.2l.06-.2zM11.9 5l.06.2h.2l-.14.11.06.22-.17-.12-.19.11.08-.2-.16-.13h.2L11.9 5zm0 1.18l.06.2h.2l-.14.11.06.22-.17-.12-.19.11.08-.2-.16-.13h.2l.06-.2z" class="cls-1"/>
  <path d="M11.3 11.58a1.2 1.2 0 00-.3.26l-.19.3a.2.2 0 00-.02.1s-.06-.04-.14.06a1.85 1.85 0 00-.25.32l3.26.01a.95.95 0 00-.11-.32 2.15 2.15 0 01-.17-.29c-.09.07-.22.08-.38-.17a1.13 1.13 0 01-.05-.18c-.03.2-.05.44-.19.44s-.22-.34-.24-.4a.85.85 0 01-.1.31c-.03.07-.02.1-.12.1-.07 0-.12-.14-.12-.14a.81.81 0 01-.09-.23s-.26.42-.4.36.03-.49.03-.49c-.16.26-.47.48-.54.44s.01-.24.02-.3a1.58 1.58 0 01.1-.18z" class="cls-5" transform="translate(-.1 -.1)"/>
  <path d="M10.87 10.66a1.61 1.61 0 01-.06-.25.34.34 0 01.14-.25.99.99 0 01.42-.15.67.67 0 01.17-.12.62.62 0 000 .2c.01.04.2.36.2.36s.13.14.08.16c-.1.02-.17 0-.3.1l-.03-.18a1.7 1.7 0 00-.4-.05c-.05.03-.02.09-.02.09s-.16 0-.2.09zm2.26.5a3.4 3.4 0 00.12.6.3.3 0 00.3.16c.17.01.27.03.32-.03s0-.26 0-.33.03-.29.09-.34a.55.55 0 00.19-.32 2.38 2.38 0 01.03-.44s.07-.1.06-.16c-.03-.08-.23-.1-.26-.14s-.17-.1-.05-.2.31-.3.57-.5c.23-.19.55-.4.91-.63.18-.11 1.1-.49 1.15-.58a.5.5 0 00.06-.2c0-.1-.1-.17-.04-.2s.31-.22.38-.28c.05-.04.22-.18.21-.26s-.12-.2-.12-.28a.39.39 0 00-.11-.3.3.3 0 00-.29-.1c-.1.03-.28.14-.19.24a.4.4 0 01.12.34c-.03.08-.3.14-.4.17a.59.59 0 00-.37.22c-.06.1.19.1.21.16s-.2.13-.28.16l-.93.46c-.13.07-.74.52-.74.52a7.5 7.5 0 00-.55.53c-.13.14-.41.39-.36.43l.3.22.26.36c.06.08.11-.05.16-.02a1.28 1.28 0 01.13.13 4.03 4.03 0 00-.3.3c-.15.18-.12.67-.13.8l-.3-.32a4.78 4.78 0 01-.15-.18z" class="cls-2" transform="translate(-.1 -.1)"/>
  <path d="M11.48 10.52l-.39-.04a1.25 1.25 0 01.01.46 2.97 2.97 0 00-.24.56.5.5 0 00.1.38l.32-.3a1.42 1.42 0 01.17-.5.95.95 0 00.06-.33 1.99 1.99 0 00-.03-.23zm-.51.1l-.04.35c-.01.07-.23.14-.27.17a.62.62 0 01-.36.08c-.19-.06-.18-.2-.19-.3a.38.38 0 00-.19-.27.3.3 0 01-.15-.17c-.03-.05-.12-.22.03-.27s.13-.02.15-.05l.1-.14a4.36 4.36 0 00-1.08-.92 7.1 7.1 0 00-1.16-.6c-.47-.19-.44-.26-.47-.37a.53.53 0 01.04-.29c-.11-.02-.2-.13-.34-.21-.16-.1-.27-.3-.24-.36a1.2 1.2 0 00.12-.34.38.38 0 01.26-.3c.1-.05.39.13.28.23-.06.06-.1.14-.12.36a1.63 1.63 0 00.19.1c.07.03.72.15.59.33 0 0-.15.03-.17.1 0 0-.18.02.28.18a6.12 6.12 0 011.72 1.01 7.11 7.11 0 01.82.8c.09.12-.1.2-.19.25a2.13 2.13 0 00-.22.22 1.6 1.6 0 00-.12.22.72.72 0 01.22.38c.01.11.08.17.17.13.02-.05-.09-.48.14-.58a1.03 1.03 0 00.1.3.07.07 0 01.1-.04z" class="cls-2" transform="translate(-.1 -.1)"/>
  <path d="M11.05 17.1a4.32 4.32 0 00-.47.37l.48.05-.23.3.52-.16a2.94 2.94 0 00-.22.38 4.05 4.05 0 01.43-.18 4.35 4.35 0 00-.17.44c.11-.1.43-.29.43-.29a2.06 2.06 0 00-.03.27c.06.13.38.12.47.01a1.64 1.64 0 00-.02-.29l.43.23-.15-.4.46.23-.2-.32.53.1-.28-.28.59-.03-.6-.46c-.08.06-.24-.06-.28-.08.1.17.14.3.07.37s-.28-.12-.28-.12a.3.3 0 01-.06.38c-.08.04-.26-.2-.27-.27.02.19-.05.4-.17.43s-.16-.07-.19-.18a.8.8 0 010-.24c-.12.18-.17.27-.29.23s-.08-.21-.07-.24l.05-.17c-.17.18-.23.22-.3.16s.02-.32.02-.32a1.78 1.78 0 00-.2.08z" class="cls-6" transform="translate(-.1 -.1)"/>
  <path fill="#00833e" d="M7.74 17.72a1.72 1.72 0 01.23.46 1.64 1.64 0 010 .61.32.32 0 00.25.34.53.53 0 01.22.14c.03.05.14.08.14-.04a8.25 8.25 0 00-.28-1.09 1.44 1.44 0 00-.37-.62 1.4 1.4 0 01-.19.2zm-1.08-2.08c.05-.06.14-.29.21-.34a2.8 2.8 0 01.35-.2c.07-.03.28-.11.4-.18a2.76 2.76 0 01-.1.29l-.17.42c-.07.16-.48.34-.57.42a.35.35 0 00-.04.22.38.38 0 00.18.22l-.22.22a.7.7 0 00-.21-.19l-.05.04a2.63 2.63 0 01-.02.65c-.04.35-.43.67-.56.79l-.02-.25a2.19 2.19 0 01.17-.98 2.12 2.12 0 00-.22.27 2.05 2.05 0 00-.08.34.72.72 0 01-.45.11 1.9 1.9 0 00.22-.5c.04-.16.52-.44.59-.48a.2.2 0 01.05-.13H6c-.11.07-.34.26-.5.35a1.05 1.05 0 01-.64-.02 3.5 3.5 0 01.22-.3 2.87 2.87 0 01.44-.32 1.78 1.78 0 00-.28.03 1.98 1.98 0 00-.26.17 1.27 1.27 0 01-.49-.27c.2-.02.31-.15.42-.18a2.64 2.64 0 01.41-.03l.08-.1s-.02-.06-.16-.04a1.3 1.3 0 01-.65-.11c-.06-.03-.26-.2-.4-.2a1.43 1.43 0 01.42-.17 3.08 3.08 0 01.63.08 1.73 1.73 0 00-.28-.17 1.62 1.62 0 00-.54-.04c-.12 0-.3-.22-.37-.31a1.37 1.37 0 01.57-.14 2.13 2.13 0 01.4.16c.06 0 0-.16 0-.16-.21-.03-.17-.2-.17-.2a.89.89 0 01-.71-.5 2.38 2.38 0 01-.2-.62 1.57 1.57 0 01.16.18c.08.1.22.12.4.22a1.04 1.04 0 01.38.34.42.42 0 00-.13-.3 1.56 1.56 0 01-.24-.66 2.27 2.27 0 01.23-.7c0 .06.05.13.22.35a1.03 1.03 0 01.11.63l-.02.34a2.45 2.45 0 00.12-.28 1.82 1.82 0 00.02-.41.9.9 0 01.38-.35 1.66 1.66 0 01-.11.87l-.24.3a1.97 1.97 0 00-.1.33s.07 0 .1-.05a2.1 2.1 0 01.57-.62 1.84 1.84 0 01-.03.7 2.67 2.67 0 01-.39.44.24.24 0 01.04.17.14.14 0 01-.11.1.24.24 0 00.07.17s.12-.02.16.04a.21.21 0 01-.03.16l.08.14a.2.2 0 01.17.02l-.03-.16a1 1 0 01.2-.64l.3-.35a4.73 4.73 0 01.07.96 1.27 1.27 0 01-.15.38l-.06.19a.22.22 0 00.1.2.24.24 0 01.22-.05 4.25 4.25 0 01-.1-.53 1.14 1.14 0 01.28-.57 2.86 2.86 0 00.3-.4c0 .05.05.49.05.63 0 0-.23.22-.25.33a1.57 1.57 0 000 .23z" transform="translate(-.1 -.1)"/>
  <path d="M16.19 17.13a.51.51 0 00.03.24c.04.06.13.1.2.18s.15.21.24.23a.3.3 0 00.2-.05.33.33 0 00.1-.26s.19 0 .24-.06a.33.33 0 00.02-.26.26.26 0 00.18-.06.16.16 0 00.01-.2 2.56 2.56 0 00-.35-.39.43.43 0 00-.3-.08.3.3 0 00-.18-.21.35.35 0 00-.34.05.31.31 0 00-.06.36l.04.05a9.86 9.86 0 01-.6.01l-.43.1.31.36.69-.01zm-7.55.01l.31-.36-.42-.1-.61-.01c0-.02.04-.04.04-.05a.31.31 0 00-.06-.37.35.35 0 00-.34-.05.3.3 0 00-.18.21.43.43 0 00-.3.09 2.56 2.56 0 00-.35.39.16.16 0 00.01.2.26.26 0 00.18.05.33.33 0 00.02.26c.06.07.24.07.24.07a.33.33 0 00.1.26.3.3 0 00.2.05c.09-.02.16-.15.23-.23s.17-.12.21-.18a.51.51 0 00.03-.25c.19.02.56.02.7.02z" class="cls-2" transform="translate(-.1 -.1)"/>
  <path d="M13.84 15.48a1.14 1.14 0 01.58.13.68.68 0 01.23.2.88.88 0 01.44.21c.17.17.18.26.18.26a1.53 1.53 0 01.3.21.36.36 0 01.1.16c0 .19-.45.19-.45.19a.48.48 0 01.26.3c.04.12-.25.19-.36.17a1.73 1.73 0 01-.2-.03.39.39 0 01-.18.03 1.28 1.28 0 01-.44-.15.92.92 0 01-.55-.06 1.63 1.63 0 01-.37-.22l-.16-.17c.3.02.44 0 .54-.1.13-.13.07-.45.08-.67v-.46zm-1 1.23s.27.25.17.36c-.08.09-.24-.05-.24-.05s.12.3.02.36c-.08.05-.22-.1-.22-.1 0 .19 0 .32-.1.37s-.27-.27-.27-.27.01.49-.22.45c-.12-.03-.16-.42-.16-.42s-.14.27-.27.22c-.17-.07 0-.5 0-.5s-.18.3-.33.23c-.1-.05 0-.3 0-.3s-.17.07-.23-.01c-.04-.06.19-.34.19-.34h1.66zm-2.57-1.23a1.14 1.14 0 00-.58.13.68.68 0 00-.23.2.88.88 0 00-.44.21c-.17.17-.17.26-.17.26a1.53 1.53 0 00-.3.21.36.36 0 00-.1.16c0 .19.44.19.44.19a.48.48 0 00-.26.3c-.04.12.26.19.37.17a1.73 1.73 0 00.2-.03.39.39 0 00.17.03 1.28 1.28 0 00.45-.15.92.92 0 00.55-.06 1.63 1.63 0 00.36-.22l.16-.17c-.29.02-.44 0-.53-.1-.14-.13-.07-.45-.08-.67v-.46zm0-2.68a.72.72 0 01-.73-.2 1.2 1.2 0 01-.34-.85c0-.27.04-.26.21-.45s.27-.26.3-.46-.18-.38-.43-.7A6.18 6.18 0 008.14 9.1a8.95 8.95 0 00-1.18-.78 6.46 6.46 0 00-.85-.4 3.87 3.87 0 00-.87-.18c-.1 0-.2 0-.08.13a5.11 5.11 0 00.74.52 1.14 1.14 0 01.2.15c-.23-.03-.43.04-.46.14s.24.3.34.37a1.82 1.82 0 00.3.16c-.2.05-.48.04-.47.17s.28.26.38.32a1.24 1.24 0 00.31.1.47.47 0 00-.37.21c-.03.09.28.3.45.36-.2.07-.4.15-.39.27s.32.27.44.31c-.16.06-.48.15-.46.26s.36.27.49.32c-.17.07-.46.24-.44.34.03.16.45.2.53.23-.18.1-.36.3-.33.42s.47.14.56.14c-.11.13-.27.41-.22.47s.3.06.4.02a.47.47 0 01.18-.03s-.28.32-.17.53c.03.06.51-.06.59-.1-.09.18-.19.55-.14.6a1.7 1.7 0 00.62-.15c-.07.2-.15.52-.06.57s.4-.1.51-.2a.6.6 0 00.06.5c.08.06.34-.06.46-.2.01.24.02.49.13.54s.3-.27.39-.34c.04.23.14.43.23.45.16.04.3-.29.3-.29zm3.57 0a.72.72 0 00.72-.2 1.2 1.2 0 00.34-.85c0-.27-.04-.26-.21-.45s-.27-.26-.3-.46.18-.38.43-.7a6.18 6.18 0 011.14-1.04 8.95 8.95 0 011.18-.78 6.46 6.46 0 01.85-.4 3.87 3.87 0 01.87-.18c.1 0 .2 0 .08.13a5.11 5.11 0 01-.74.52 1.14 1.14 0 00-.2.15c.23-.03.43.04.46.14s-.24.3-.34.38a1.82 1.82 0 01-.3.16c.2.05.48.03.47.16s-.28.27-.38.33a1.24 1.24 0 01-.31.1.47.47 0 01.37.2c.03.1-.28.3-.45.37.2.06.4.14.39.26s-.31.28-.44.31c.16.06.48.15.46.26s-.36.28-.48.33c.17.06.45.23.43.33-.03.16-.45.2-.53.23.18.1.36.3.33.42s-.47.14-.56.14c.11.13.27.41.22.47s-.3.06-.4.02a.47.47 0 00-.18-.03s.28.32.17.53c-.03.06-.51-.05-.59-.09.09.17.19.54.14.59a1.7 1.7 0 01-.62-.15c.07.2.15.52.06.57s-.4-.1-.51-.2a.6.6 0 01-.06.5c-.08.06-.34-.06-.46-.2-.01.24-.02.49-.13.54s-.3-.27-.39-.34c-.04.23-.14.43-.23.45-.16.04-.3-.29-.3-.29z" class="cls-5" transform="translate(-.1 -.1)"/>
  <path d="M13.54 16.7h-1.3a.08.08 0 00-.07.04l-.13.2-.14-.2a.08.08 0 00-.06-.03h-1.3a.3.3 0 01-.3-.3v-3.75h3.6v3.75a.3.3 0 01-.3.3z" class="cls-1" transform="translate(-.1 -.1)"/>
  <path d="M10.44 13.91h.28v2.68h-.28zm.54 0h.28v2.68h-.28z" class="cls-8"/>
  <path d="M19.46 15.13v-.22l-.16-.11.68-.19zm-.15.56v-.22l-.15-.12.69-.16zm-.83.29l-.02-.22-.16-.1.68-.22zm.18-.46l-.04-.21-.17-.1.65-.28zm.21-.52l-.05-.2-.18-.08.62-.35zm.73-.42l-.03-.21-.16-.1.66-.25zm-.58-.1l-.07-.2-.18-.06.59-.4zm.68-.45l-.06-.2-.18-.08.62-.35zm-.05-.53l-.1-.2-.18-.05.57-.43zm-.66.56l-.09-.2-.19-.03.55-.45zm.02-.53l-.1-.19-.2-.03.53-.48zm-.9.94l-.12-.17-.2-.02.48-.52zm-.1-.54l-.13-.17h-.2l.43-.56z" class="cls-6" transform="translate(-.1 -.1)"/>
  <path d="M15.8 18.95l-.1-.14-.16.04.28-.68.17-.04.08.15-.28.67zm-.3-.4l-.06-.17-.17.02.4-.62.17-.02.06.16-.4.62zm-.58.03l-.03-.17-.17-.01.49-.55.17.02.03.16-.49.55zm-.34-.4l.02-.18-.16-.06.63-.38.15.06-.01.17-.63.38z" class="cls-6"/>
  <path d="M11.53 13.91h.28v2.68h-.28zm.55 0h.28v2.68h-.28zm.54 0h.28v2.68h-.28zm.55 0h.28v2.68h-.28z" class="cls-8"/>
  <path fill="#ccc" d="M12.02 9.38H12a.5.5 0 01-.41-.26.5.5 0 01-.82-.28.52.52 0 01-.48-.07.5.5 0 01-.18-.47.5.5 0 01-.43-.21.5.5 0 01-.03-.5.51.51 0 01-.33-.34.49.49 0 01.13-.48.5.5 0 01.06-.85.5.5 0 01-.05-.48.5.5 0 01.4-.29.5.5 0 01.1-.47.52.52 0 01.47-.16.48.48 0 01.22-.4.48.48 0 01.53 0 .5.5 0 01.35-.32.49.49 0 01.48.17.5.5 0 01.5-.19.43.43 0 01.35.32.56.56 0 01.48-.04.45.45 0 01.28.45.52.52 0 01.44.1.46.46 0 01.15.53.47.47 0 01.4.25.51.51 0 01-.05.53.52.52 0 01.29.38.49.49 0 01-.23.49.5.5 0 01.15.5.52.52 0 01-.35.34.5.5 0 01-.03.5.54.54 0 01-.46.22.54.54 0 01-.21.47.5.5 0 01-.47.04.49.49 0 01-.3.37.53.53 0 01-.5-.1.5.5 0 01-.43.25zm-.4-.45l.03.08a.39.39 0 00.73.02l.03-.07.05.05a.43.43 0 00.45.11.4.4 0 00.24-.34l.01-.08.07.04a.4.4 0 00.43 0 .45.45 0 00.16-.44v-.07h.06a.45.45 0 00.42-.16.43.43 0 000-.45l-.03-.07h.08a.4.4 0 00.32-.28.42.42 0 00-.16-.44l-.06-.05.07-.04a.4.4 0 00-.06-.74l-.1-.02.06-.07a.41.41 0 00.08-.47.36.36 0 00-.38-.2l-.09.01.04-.08a.38.38 0 00-.49-.54l-.1.08.02-.12a.36.36 0 00-.2-.43.4.4 0 00-.44.07l-.08.11-.01-.13a.34.34 0 00-.28-.33.4.4 0 00-.43.2l-.04.08-.05-.07a.4.4 0 00-.42-.18.39.39 0 00-.3.3v.09l-.08-.06a.39.39 0 00-.46-.04.37.37 0 00-.17.38l.02.09-.09-.03a.43.43 0 00-.45.1.4.4 0 00-.05.43l.03.07h-.08a.39.39 0 00-.3.66l.05.06-.06.02a.41.41 0 00-.27.37.4.4 0 00.22.36l.07.03-.06.06a.39.39 0 00.16.7l.08.01-.04.07a.41.41 0 000 .44.4.4 0 00.4.16l.07-.01-.01.07a.39.39 0 00.57.47l.07-.04v.08a.4.4 0 00.27.36.39.39 0 00.42-.12z" transform="translate(-.1 -.1)"/>
  <path fill="#002d73" d="M10.14 12.52h3.57v1.38h-3.57z"/>
  <path d="M12.21 17.34h-.03v.07h.05c0-.03 0-.05-.02-.07zm.43-.46l-.03-.05zm-1.73-6.24v.1l-.02.21a.72.72 0 01-.29.16.49.49 0 00.04-.08 1.57 1.57 0 00.02-.43.23.23 0 01.12-.2l.02-.08h-.02a.3.3 0 00-.2.29c0 .13.02.24 0 .32a.1.1 0 01-.05-.03.18.18 0 01-.04-.14.49.49 0 00-.21-.34v-.02a.22.22 0 00.02-.03.74.74 0 01.2-.26l.11-.08c.13-.09.25-.16.2-.25a6.77 6.77 0 00-1.05-1.02 7.3 7.3 0 00-1.43-.84 19.12 19.12 0 00-.38-.14s.01-.03.1-.06h.02a.1.1 0 00.09-.1c0-.08-.08-.18-.46-.26a.73.73 0 01-.23-.08 1.92 1.92 0 01-.1-.07.69.69 0 01.09-.28.13.13 0 00.06-.12c0-.06-.03-.1-.11-.15a.39.39 0 00-.25-.06.29.29 0 00-.2.13.38.38 0 00-.05.08.5.5 0 00-.05.17.31.31 0 01-.03.13l-.02.04c-.07.13-.09.17-.02.28a1.95 1.95 0 00.56.44.65.65 0 01-.02.04.35.35 0 00.1.45l.13.06a10.53 10.53 0 011.36.68 4.83 4.83 0 011.1.9v.03c-.01.1-.16.16-.18.16a.14.14 0 00-.1.02.13.13 0 00-.06.15.4.4 0 00.1.21.38.38 0 00.13.1c.08.05.16.1.18.33a.3.3 0 00.3.26.2.2 0 00.12-.04h.02c.09-.04.4-.15.42-.25v-.1l.02-.27v-.02zm-1.17-.3l.01-.01a.09.09 0 01.03-.06c.04-.03.17.05.27.14l.03.02.04.03a.2.2 0 00.07.02.1.1 0 00.04 0 .44.44 0 01.19.29.24.24 0 00.07.2.17.17 0 00.09.03v.02a.56.56 0 01-.07.13.18.18 0 01-.2.05.21.21 0 01-.16-.2c-.02-.27-.12-.32-.22-.38a.34.34 0 01-.19-.27.04.04 0 000-.01zM7.9 7.76a.9.9 0 01-.32-.16.18.18 0 01-.05-.08.03.03 0 01.02-.03.03.03 0 01.01 0 .03.03 0 01.02 0 1.2 1.2 0 00.37.2.14.14 0 00-.05.07zm-.4-.32c-.04.04-.04.06-.03.08v.04l-.08.24a1.86 1.86 0 01-.52-.42c-.05-.07-.05-.08.02-.2l.02-.04a.37.37 0 00.04-.16.38.38 0 01.02-.1.54.54 0 00.16.22 2.28 2.28 0 00.34.22.9.9 0 00.25.09c.39.08.4.18.4.2s-.02.03-.04.04h-.04a1.19 1.19 0 01-.43-.23.1.1 0 00-.12.02zm.01.18a.45.45 0 00.04.03.53.53 0 00.18.11l.59.23a7.1 7.1 0 011.41.82 6.88 6.88 0 011.04 1c.02.05-.07.1-.17.17a3.52 3.52 0 00-.12.08.75.75 0 00-.2.24 3.52 3.52 0 00-1.32-1.25 10.58 10.58 0 00-1.36-.7 3.42 3.42 0 01-.13-.05.29.29 0 01-.07-.37 1.71 1.71 0 00.1-.3zm-.33-.56l.05-.17a.27.27 0 00.16.06.96.96 0 00-.07.22 1.42 1.42 0 01-.14-.1zm.07-.24a.41.41 0 01-.05-.04l-.01-.02-.07.24a.32.32 0 01-.11-.2.15.15 0 01.1-.12.22.22 0 01.1-.03.37.37 0 01.18.06c.07.04.08.06.08.08a.07.07 0 01-.05.07.17.17 0 01-.18-.04zm2.83 3.28a1.15 1.15 0 01.13.22.3.3 0 01.01.07l-.01.02-.06-.01-.01-.02a.91.91 0 00-.2-.15.31.31 0 00.14-.13zm7.05-2.96l-.02-.03a.31.31 0 01-.04-.14.5.5 0 00-.04-.17.37.37 0 00-.05-.08.3.3 0 00-.2-.12.39.39 0 00-.26.06c-.08.04-.11.08-.11.14a.13.13 0 00.06.12.69.69 0 01.1.29 2.37 2.37 0 01-.11.06.73.73 0 01-.23.08c-.38.08-.46.18-.46.26a.1.1 0 00.1.1h.02c.08.03.09.05.09.06l-.38.15a7.3 7.3 0 00-1.42.83 6.77 6.77 0 00-1.06 1.02c-.05.1.06.17.2.26l.11.08a.74.74 0 01.2.26.21.21 0 00.02.03.09.09 0 00.05.06.12.12 0 00.1 0h.01c.06 0 .11.05.14.08a.99.99 0 00-.35.41 1.44 1.44 0 00-.05.55v.1l-.38-.44-.07-.09.01.11a4.65 4.65 0 00.1.52.34.34 0 00.23.25.1.1 0 00.06 0 .86.86 0 00.2.02.28.28 0 00.16-.04.13.13 0 00.05-.1.95.95 0 00-.01-.17.47.47 0 01.11-.47c.17-.16.16-.24.16-.35a.61.61 0 010-.15l.06-.28a.14.14 0 00.03-.1.13.13 0 00-.07-.1.14.14 0 00-.1-.02c-.01 0-.16-.05-.17-.16v-.02a4.83 4.83 0 011.1-.9 10.53 10.53 0 011.34-.7l.14-.06a.35.35 0 00.1-.45l-.02-.03a1.95 1.95 0 00.55-.45c.09-.1.07-.14 0-.28zm-.76.35a.03.03 0 01.03 0 .03.03 0 01.02.03.18.18 0 01-.06.08.9.9 0 01-.31.16.14.14 0 00-.05-.06 1.2 1.2 0 00.37-.2zm-.15.27a.53.53 0 00.18-.1.47.47 0 00.04-.04 1.71 1.71 0 00.1.31.29.29 0 01-.07.37 3.42 3.42 0 01-.13.05 10.58 10.58 0 00-1.35.7 3.52 3.52 0 00-1.32 1.25.75.75 0 00-.2-.24l-.12-.08c-.1-.07-.2-.13-.17-.17a6.88 6.88 0 011.04-1A7.1 7.1 0 0115.63 8l.6-.23zm.35.04a4.33 4.33 0 01-.08-.24v-.04c.01-.01.01-.04-.03-.08a.1.1 0 00-.1-.01 1.17 1.17 0 01-.43.22.2.2 0 01-.04 0c-.02 0-.04-.02-.04-.04s.02-.1.4-.2a.9.9 0 00.25-.09 2.28 2.28 0 00.34-.22.54.54 0 00.16-.22.38.38 0 01.02.1.37.37 0 00.04.16l.02.04c.07.13.07.13.02.2a1.86 1.86 0 01-.53.42zm.25-.8l-.06-.24-.02.01-.03.05a.17.17 0 01-.19.04.07.07 0 01-.04-.06c0-.02 0-.05.08-.09.16-.09.22-.06.28-.03a.15.15 0 01.1.13.32.32 0 01-.12.19zm-.1-.11l.04.17a1.42 1.42 0 01-.14.1.96.96 0 00-.06-.22.27.27 0 00.16-.05zm-2.99 3.43a1.15 1.15 0 01.13-.23.31.31 0 00.14.14.84.84 0 00-.22.17.08.08 0 01-.05 0l-.01-.02a.3.3 0 01.01-.06zm.15.09c.1-.1.23-.18.27-.15a.08.08 0 01.04.08.1.1 0 01-.01.04 1.26 1.26 0 01-.17.13.34.34 0 00-.13-.1zm.22.43c0 .1.01.16-.13.3a.54.54 0 00-.14.52.9.9 0 01.02.15.07.07 0 01-.03.06.4.4 0 01-.25.01.44.44 0 00.04-.08 1.59 1.59 0 000-.3 1.39 1.39 0 01.06-.53.92.92 0 01.35-.4h.02a.8.8 0 00.1-.07l-.03.17a.67.67 0 000 .18zm-.59 1a.06.06 0 01-.05.04.27.27 0 01-.18-.2 3.83 3.83 0 01-.08-.4c.26.3.33.4.34.42a.24.24 0 01-.02.15zm-2.05-1.62a.05.05 0 010-.06c.03-.02.12.07.12.07a.5.5 0 01-.12-.01z" class="cls-11" transform="translate(-.1 -.1)"/>
  <path fill="#2e2a25" fill-rule="evenodd" d="M12.4 10.2a.72.72 0 01.16.1.2.2 0 00-.13-.16.77.77 0 00-.33 0 .42.42 0 01-.12 0 .26.26 0 00-.16.01l.15.05c.04.03.22.14.3.1s.03-.07-.01-.11a.4.4 0 01.14.01z" transform="translate(-.1 -.1)"/>
  <path d="M12.56 17.45v.03l.09.11zM7.62 8.22V8.2a.07.07 0 00.03 0 .03.03 0 00.02-.02l.08-.22a.03.03 0 000-.04.08.08 0 00-.03-.01V7.9L8 8l-.03.1h-.02a.1.1 0 000-.08.15.15 0 00-.08-.04.06.06 0 00-.03 0h-.01l-.03.11a.08.08 0 00.06 0 .12.12 0 00.04-.04h.01l-.05.15h-.02a.1.1 0 000-.06.08.08 0 00-.05-.03l-.04.1a.02.02 0 000 .03.07.07 0 00.03.02.13.13 0 00.16-.04h.01l-.05.1zm.48.2a.05.05 0 00.04 0l.02-.03.08-.2v-.04a.07.07 0 00-.02-.02v-.01l.15.06a.2.2 0 01.08.06.08.08 0 010 .08.09.09 0 01-.03.03.1.1 0 01-.05.02.16.16 0 01-.05-.01l-.06-.02-.04.08a.05.05 0 000 .04.06.06 0 00.03.02v.01l-.15-.06zm.23-.08q.03 0 .05-.05a.11.11 0 00.01-.06.05.05 0 00-.03-.03.05.05 0 00-.02 0 .01.01 0 00-.01 0l-.05.13a.13.13 0 00.06 0zm.06.2a.08.08 0 00.03 0 .03.03 0 00.03-.01l.1-.21a.03.03 0 000-.04.08.08 0 00-.02-.02l.17.07v.01a.08.08 0 00-.05 0l-.03.02-.1.21a.02.02 0 000 .02.07.07 0 00.03.02.14.14 0 00.08.02.15.15 0 00.08-.04h.02l-.07.1-.27-.14zM9 8.5v.01a.07.07 0 00-.05-.01l-.03.03-.08.14a.15.15 0 00-.02.05.06.06 0 00.03.07.08.08 0 00.1 0 .15.15 0 00.04-.05l.07-.13a.05.05 0 00.01-.04.06.06 0 00-.03-.03l.01-.01.1.06a.08.08 0 00-.04.01l-.02.02-.09.14a.14.14 0 01-.08.06.13.13 0 01-.1-.02.13.13 0 01-.07-.1.13.13 0 01.02-.07l.09-.14a.05.05 0 000-.04.06.06 0 00-.02-.02v-.01zm.01.38a.06.06 0 00.04.01l.03-.02.12-.18a.05.05 0 00.01-.03.07.07 0 00-.02-.03v-.01l.14.1a.27.27 0 01.06.06.08.08 0 010 .1.07.07 0 01-.06.03.13.13 0 01-.05-.01v.19h.01v.01l-.09-.06v-.2l-.06.08a.05.05 0 000 .03.05.05 0 00.01.03V9L9 8.9zm.26-.02q.03 0 .06-.04a.1.1 0 00.02-.04.05.05 0 00-.03-.05.05.05 0 00-.02-.01.02.02 0 00-.02 0l-.07.1a.15.15 0 00.06.04zm.07.26a.08.08 0 00.02.01.03.03 0 00.03-.01l.14-.2a.03.03 0 00.01-.03.09.09 0 00-.02-.02v-.01l.15.1a.1.1 0 00-.04 0 .03.03 0 00-.03 0l-.14.2a.03.03 0 000 .03.07.07 0 00.02.03l-.15-.1zm.19.14a.07.07 0 00.02.01.03.03 0 00.03-.01l.16-.18a.03.03 0 000-.04.08.08 0 00-.02-.02l.01-.01.12.1a.24.24 0 01.06.06.07.07 0 010 .09.06.06 0 01-.05.02.11.11 0 01-.06-.02.15.15 0 01.03.05.08.08 0 01-.09.1.19.19 0 01-.1-.05l-.13-.1zm.1.07a.03.03 0 00.02.02.06.06 0 00.05.02.09.09 0 00.05-.03.07.07 0 00.02-.08.13.13 0 00-.04-.04l-.08.1a.04.04 0 00-.01 0zm.16-.1a.07.07 0 00.05-.03.1.1 0 00.02-.04.04.04 0 00-.02-.04.04.04 0 00-.02-.01.02.02 0 00-.01 0l-.07.1a.1.1 0 00.05.02zm.34.12h-.01a.07.07 0 00-.04-.01l-.03.02-.11.12a.15.15 0 00-.04.04.06.06 0 00.02.08.08.08 0 00.09.02.15.15 0 00.05-.04l.1-.1a.05.05 0 00.02-.04.06.06 0 00-.01-.04l.08.07v.01a.08.08 0 00-.04-.01l-.02.01-.11.12a.14.14 0 01-.1.05.13.13 0 01-.08-.05.13.13 0 01-.05-.12.13.13 0 01.04-.06L10 9.3l.02-.03a.06.06 0 00-.02-.03v-.01zm0 .3h.01a.15.15 0 00-.03.1.09.09 0 00.03.05.06.06 0 00.04.03.06.06 0 00.04-.02.05.05 0 00.02-.03.19.19 0 00-.01-.05l-.02-.03a.21.21 0 010-.08.09.09 0 01.02-.06.1.1 0 01.07-.02.1.1 0 01.07.03.17.17 0 01.04.05.2.2 0 00.01.03.01.01 0 00.01 0h.01l.01.01-.07.07h-.01a.15.15 0 00.02-.08.08.08 0 00-.02-.06.06.06 0 00-.04-.02.05.05 0 00-.05.05.33.33 0 00.02.07v.04a.15.15 0 01.02.04.1.1 0 01-.03.07.1.1 0 01-.08.03.12.12 0 01-.09-.05.17.17 0 01-.01-.02.17.17 0 01-.02-.03v-.02h-.03zm3.89-.47a.07.07 0 00-.01.04l.01.03.12.14a.16.16 0 00.05.04.06.06 0 00.07-.02.08.08 0 00.03-.08.16.16 0 00-.03-.06l-.1-.12a.06.06 0 00-.04-.02.06.06 0 00-.04.01l.08-.08a.07.07 0 000 .04v.03l.12.12a.15.15 0 01.04.1.12.12 0 01-.05.1.13.13 0 01-.13.03.14.14 0 01-.06-.04l-.11-.13-.03-.03a.06.06 0 00-.04.02v-.01zm.44.05c.02 0 .03-.02.03-.03a.05.05 0 00-.02-.03l-.14-.2h-.04a.03.03 0 00-.02 0v-.02l.08-.06.27.07-.1-.12a.06.06 0 00-.02-.03.05.05 0 00-.04.01l.08-.07a.07.07 0 00-.01.04l.01.03.18.24-.35-.08.12.16a.07.07 0 00.02.03.05.05 0 00.05-.01l-.09.08zm.35-.65v.01a.07.07 0 00-.02.03l.01.04.1.15a.16.16 0 00.03.05.06.06 0 00.07 0 .08.08 0 00.05-.08.17.17 0 00-.03-.07l-.08-.13a.06.06 0 00-.03-.03.06.06 0 00-.04 0l.1-.06v.01a.07.07 0 00-.02.03.04.04 0 00.01.03l.09.14a.15.15 0 01.03.1.12.12 0 01-.08.09.13.13 0 01-.13.02.14.14 0 01-.05-.06l-.1-.15q0-.02-.02-.02a.06.06 0 00-.03 0h-.01zm.43.14l.03-.03a.05.05 0 000-.03l-.12-.22q0-.02-.02-.02a.08.08 0 00-.04 0l.11-.06.2.16-.02-.26.12-.06v.01a.07.07 0 00-.02.03v.04l.11.2.03.02a.06.06 0 00.04 0l-.15.09-.01-.01a.07.07 0 00.03-.02.03.03 0 000-.03l-.12-.23.03.33h-.01l-.25-.2.1.2a.06.06 0 00.03.04.06.06 0 00.05-.01v.01l-.1.06zm1.09 8.97l-.05-.06-.23.6-.16.03-.3.73.2-.05.1.18.3-.74-.08-.13zm-.45 1.3l-.07-.11-.13.03.25-.6.13-.03.07.12zm.28-1.44l-.04-.06-.22.35-.15.02-.43.66.2-.01.07.19.43-.67-.06-.15zm-.55 1.03l-.05-.13-.13.01.35-.55.13-.01.05.13zM16.08 17.4l-.03-.06-.58.6-.17-.02-.53.6h.2l.04.2.53-.58-.03-.15zm-1.03 1.2l-.03-.13h-.13l.43-.5.14.02.02.13z" class="cls-11" transform="translate(-.1 -.1)"/>
  <path d="M16.05 17.2l-.74.5-.15-.07-.68.42.19.07-.02.2.68-.41.01-.16.71-.47zm-.77.68l-.56.34.01-.13-.12-.05.55-.34.13.05z" class="cls-11" transform="translate(-.1 -.1)"/>
  <path fill="#323a45" d="M19.24 12.81l-.57.53.19.02-1.32 2.04-.2.38.25-.34 1.32-2.04.1.16zm-.31.5l-.13-.01.32-.3-.13.42z" transform="translate(-.1 -.1)"/>
  <path d="M18.12 13.17l-.46.63.18-.03-1 2.54h.08l.98-2.51.12.14zm-.22.54l-.12.01.26-.35-.06.44z" class="cls-11" transform="translate(-.1 -.1)"/>
  <path d="M18.29 13.73l-.53.58h.19l-.83 1.61-.11.27.17-.24.83-1.6.1.15zm-.27.52h-.13l.3-.32-.1.43zm1.27-.91l-.64.52.2.03-1.87 2.44.05.04 1.87-2.44.08.18zm-.37.5l-.14-.02.38-.3-.18.45z" class="cls-11" transform="translate(-.1 -.1)"/>
  <path d="M19.38 13.8l-.65.43.18.04-1.25 1.4-.3.38.36-.34 1.24-1.38.06.16zm-.52.4l.37-.24-.2.4-.04-.12z" class="cls-11" transform="translate(-.1 -.1)"/>
  <path d="M19.28 14.35l-.68.38.18.06-1.7 1.6.05.04 1.69-1.6.05.18zm-.55.36l.4-.2-.24.37-.03-.13z" class="cls-11" transform="translate(-.1 -.1)"/>
  <path d="M19.13 14.91l-.72.32.17.07-1 .77-.25.25.29-.2 1-.77.04.19zm-.18.14l-.26.35-.02-.13-.12-.04z" class="cls-11" transform="translate(-.1 -.1)"/>
  <path d="M19 15.42l-.74.24.15.08-1.26.74.07.04 1.24-.72v.2zm-.18.12l-.3.32-.01-.13-.12-.06zm1.05-.36l-.76.18.16.1-.33.13-.15.13.5-.2v.18zm-.2.1l-.32.3v-.13l-.1-.07zm.34-.68l-.75.2.16.1-.37.2-.11.14.5-.27.01.18zm-.19.1l-.31.32v-.13l-.11-.07zm.27-.7l-.73.28.17.08-.32.23-.12.16.48-.33.02.18zm-.17.13l-.29.33-.01-.12-.12-.06zm.18-.76l-.68.39.18.05-.3.3-.12.2.47-.45.05.18zm-.54.37l.38-.21-.22.37-.04-.12zm.4-.94l-.63.47.19.04-.25.3-.1.23.4-.5.08.18zm-.37.46l-.12-.02.35-.27-.18.4zm-11.08 6.1a.16.16 0 01-.12-.07.58.58 0 00-.2-.12.34.34 0 01-.26-.4 1.72 1.72 0 00-.01-.6 1.6 1.6 0 00-.2-.42l-.02-.02.24-.26.02.02a1.86 1.86 0 01.4.7 10.45 10.45 0 01.26 1.03c0 .08-.03.12-.08.14a.1.1 0 01-.03 0zm-.73-1.63a1.66 1.66 0 01.2.43 1.77 1.77 0 01.01.62.28.28 0 00.23.32.63.63 0 01.23.15.1.1 0 00.06.05h.01c.02-.01.03-.04.03-.08a6.27 6.27 0 00-.22-.9l-.03-.1a1.94 1.94 0 00-.35-.66zm-.25-2.8c-.08.03-.2.1-.25.11h-.01a2.26 2.26 0 00-.36.17.78.78 0 00-.23.35.63.63 0 01.25-.45h.01v-.02a.74.74 0 00-.03-.36 1.31 1.31 0 01-.02-.28v-.11l-.06.1s-.23.34-.3.41a1.23 1.23 0 00-.2.29 2 2 0 00-.04-.62c-.02-.08-.03-.25-.03-.26l-.01-.08-.05.07-.32.38a.92.92 0 00-.19.67l.02.07a.16.16 0 00-.12 0l-.07-.1a.14.14 0 00.02-.19.14.14 0 00-.17-.04.35.35 0 01-.04-.07.52.52 0 010-.06.17.17 0 00.06-.03.16.16 0 00.01-.24 1.27 1.27 0 01.12-.12.97.97 0 00.26-.34 1.37 1.37 0 00.03-.7v-.05l-.05.03a2.96 2.96 0 00-.49.44 1.2 1.2 0 00-.11.22h-.01a1 1 0 01.23-.46 1.56 1.56 0 00.22-1v-.04l-.04.01a.73.73 0 00-.4.35V13a1.35 1.35 0 01-.08.58c.01-.15.03-.35.02-.47a.9.9 0 00-.3-.6.23.23 0 01-.03-.15l.01-.17-.13.28a1.98 1.98 0 00-.18.68 1.32 1.32 0 00.26.64.4.4 0 01.07.11.83.83 0 00-.23-.2 2.02 2.02 0 00-.13-.06 1.66 1.66 0 01-.24-.12 3.24 3.24 0 01-.26-.28l-.08-.1.02.12a2.63 2.63 0 00.24.74.86.86 0 00.61.42.48.48 0 01.06.01l.03.01a.14.14 0 000 .03.14.14 0 00.11.16h.02a.14.14 0 00.04 0 .3.3 0 01.01.1.8.8 0 00-.52-.15 1.91 1.91 0 00-.45.13l-.03.02.02.03a.83.83 0 00.38.34h.02a1.02 1.02 0 01.53.03.14.14 0 00.07.03.67.67 0 01.12.06 1.63 1.63 0 00-.55-.07.92.92 0 00-.43.18l-.1.08.13-.02c.09-.01.3.13.37.18l.03.03a1.26 1.26 0 00.7.1h.06a.2.2 0 00-.05.08.66.66 0 00-.57.12.76.76 0 01-.25.09L4.4 16l.12.1a1.23 1.23 0 00.42.22h.02v-.01a.85.85 0 01.46-.2 1.21 1.21 0 00-.38.26 2.05 2.05 0 00-.24.33l-.02.03.07.03a1.17 1.17 0 00.69-.02A2.57 2.57 0 006 16.4h.04a.14.14 0 00.04 0 .2.2 0 00-.03.07 1.2 1.2 0 00-.62.53l-.2.46-.02.05h.15a.72.72 0 00.34-.1l.02-.02v-.02a.97.97 0 01.22-.53 1.49 1.49 0 00-.14.46 2.06 2.06 0 00.01.54.82.82 0 010 .17l-.01.09.16-.15a1.42 1.42 0 00.5-.78 2.56 2.56 0 000-.61l.03-.01a.35.35 0 01.18.16l.02.06.29-.3-.04-.02-.15-.1v-.02a.17.17 0 00-.05-.12.26.26 0 01.04-.1.29.29 0 01.18-.14 1.07 1.07 0 00.47-.42 1.43 1.43 0 00.06-.22l.16-.41.02-.06zm-1.22.82l.01.02a.35.35 0 01.05.17.17.17 0 00-.18.01.17.17 0 00-.02.02l-.01-.01a.4.4 0 01-.06-.13.2.2 0 00.06-.2.78.78 0 00.09-.16.78.78 0 00.06.28zm-.12.32a.1.1 0 01.04-.07.1.1 0 01.06-.02h.02a.1.1 0 01.06.04.1.1 0 01-.02.14.1.1 0 01-.07.01.1.1 0 01-.09-.1zm-.34-.31a.13.13 0 01.03-.19.14.14 0 01.08-.03h.02a.14.14 0 01.09.06.13.13 0 01-.03.18.14.14 0 01-.19-.02zm.08-1.09l.27-.32.02.19a1.27 1.27 0 01-.1 1.02.2.2 0 00-.3-.02.16.16 0 00-.03-.1l-.04-.15a.86.86 0 01.18-.62zm-.28.76h.01a.1.1 0 01.09.1.1.1 0 01-.04.07.1.1 0 01-.14-.02.1.1 0 01.02-.13.1.1 0 01.06-.02zm-.23-.34h.01a.08.08 0 01.05.03.07.07 0 01-.01.1.08.08 0 01-.1-.01.07.07 0 010-.1.08.08 0 01.05-.02zm-.04-.33a.1.1 0 01-.03.07.1.1 0 01-.08.02.1.1 0 01-.08-.11.1.1 0 01.04-.07.1.1 0 01.05-.02h.02a.1.1 0 01.08.11zm-.27-.5a.1.1 0 01.04-.06.1.1 0 01.06-.02h.01a.1.1 0 11-.11.08zm-.17.3a.07.07 0 01.01-.14h.02a.08.08 0 01.05.03.07.07 0 01-.02.1.08.08 0 01-.06.02zm.18.47a.08.08 0 01-.16-.02.07.07 0 01.03-.05.08.08 0 01.05-.01h.01a.08.08 0 01.07.08zm.16.62a1.19 1.19 0 01-.66-.1l-.03-.03a1.27 1.27 0 00-.32-.18.85.85 0 01.32-.12 1.56 1.56 0 01.67.13l.1.05-.06-.1a.6.6 0 00-.18-.16.14.14 0 00.06-.1.14.14 0 00-.22-.13.14.14 0 00-.06.09.14.14 0 000 .04 1.13 1.13 0 00-.49 0 .73.73 0 01-.31-.28 1.66 1.66 0 01.39-.1.73.73 0 01.5.13l.02.02.06.04v-.07a.4.4 0 00-.02-.19.14.14 0 00.02-.18.14.14 0 00-.21-.02.48.48 0 00-.05-.02.49.49 0 00-.06-.02.8.8 0 01-.57-.38 2.17 2.17 0 01-.2-.6 1.96 1.96 0 00.18.2 1.56 1.56 0 00.26.13l.12.05a1.21 1.21 0 01.36.4l.13.2-.07-.23a1.12 1.12 0 00-.18-.37 1.28 1.28 0 01-.24-.6 1.97 1.97 0 01.17-.65l.01-.03a.16.16 0 00.05.08.83.83 0 01.27.56c0 .2-.05.67-.05.68l-.02.18.08-.16a1.55 1.55 0 00.18-.81.72.72 0 01.3-.29 1.43 1.43 0 01-.2.92 1.01 1.01 0 00-.25.54.16.16 0 00-.03.08.17.17 0 00.14.18h.02a.16.16 0 00.03-.32 1.1 1.1 0 01.1-.17 2.6 2.6 0 01.43-.4 1.24 1.24 0 01-.04.61.9.9 0 01-.25.32 1.3 1.3 0 00-.12.13.16.16 0 00-.17.02.16.16 0 00-.06.1.17.17 0 00.13.19.58.58 0 00.01.07.38.38 0 00.05.1.14.14 0 000 .17.14.14 0 00.09.05h.02a.14.14 0 00.04 0l.07.1a.16.16 0 00-.02.22.17.17 0 00.03.03h-.02a.2.2 0 00-.05 0 .9.9 0 00-.2 0zm.21.06h.02a.14.14 0 01.1.05.13.13 0 01.02.1.14.14 0 01-.15.12.14.14 0 01-.1-.06.13.13 0 01.03-.18.14.14 0 01.08-.03zm-.54.54a1.18 1.18 0 01-.38-.2h-.01a.57.57 0 00.22-.1.6.6 0 01.51-.1.2.2 0 00.04.12.2.2 0 00.14.07h.03a.2.2 0 00.17-.1l.06.02a.14.14 0 00-.05.09.14.14 0 000 .02.92.92 0 00-.73.18zm.88-.25a.08.08 0 01.07.09.07.07 0 01-.03.04.08.08 0 01-.06.02.07.07 0 01.02-.15zm-.31.69a1.13 1.13 0 01-.63.02 1.77 1.77 0 01.2-.28.92.92 0 01.6-.29.14.14 0 00.1.07h.03a.14.14 0 00.08-.02.14.14 0 00.06-.1.14.14 0 00-.12-.16.14.14 0 00-.1.03l-.02-.06-.02-.03a.2.2 0 00-.04-.14.2.2 0 00-.05-.04h.04a.17.17 0 00.06-.01l.04.03.01.01a.2.2 0 00.04.08.2.2 0 00.13.08h.03a.2.2 0 00.08-.01.42.42 0 00.06.13.21.21 0 00.03.03.16.16 0 00.03.15.14.14 0 00-.1-.05.14.14 0 00-.15.12.14.14 0 00.04.12 2.58 2.58 0 01-.43.31zm.62-.08a.13.13 0 01-.02-.1.14.14 0 01.13-.11h.02a.13.13 0 11-.04.26.14.14 0 01-.09-.06zm-.1-.26a.07.07 0 01.01-.15h.02a.08.08 0 01.06.08.07.07 0 01-.03.05.08.08 0 01-.06.01zm-.36 1.02a.65.65 0 01-.3.09h-.06l.18-.42a1.12 1.12 0 01.55-.48.2.2 0 00.04.09l.01.01a.85.85 0 00-.42.7zm.73-.2a1.36 1.36 0 01-.48.75l-.03.02a.5.5 0 000-.1 2 2 0 010-.51 1.14 1.14 0 01.25-.61l.01-.01a.2.2 0 00.07.02h.03a.2.2 0 00.17-.08 2.64 2.64 0 01-.03.52zm.33-.83a.1.1 0 01-.12.1.11.11 0 01-.08-.04.1.1 0 01-.03-.07.1.1 0 01.11-.1h.01a.11.11 0 01.1.1zm.7-1.02a1.36 1.36 0 01-.06.21 1.04 1.04 0 01-.42.38.35.35 0 00-.22.17.33.33 0 00-.04.1.18.18 0 00-.06-.02.18.18 0 00-.2.17.17.17 0 00.05.12.18.18 0 00.13.06.18.18 0 00.16-.09l.1.08-.15.17a.5.5 0 00-.21-.17l-.02-.02-.04.03a.2.2 0 00-.18-.18h-.02a.71.71 0 00-.07-.03v-.01a.14.14 0 00-.03-.1.17.17 0 00.1.06h.03a.17.17 0 00.1-.04.16.16 0 00.04-.22.4.4 0 00-.05-.25v-.01a.69.69 0 01-.06-.3 1.03 1.03 0 01.26-.53 3.62 3.62 0 00.25-.34.74.74 0 00.02.2.67.67 0 01.03.3.66.66 0 00-.25.7l.04.14.03-.15a.88.88 0 01.25-.48 2.15 2.15 0 01.34-.16h.01a1.5 1.5 0 00.28-.14 4.84 4.84 0 00-.14.35zm4.2-6.56l-.02-.05a.43.43 0 00-.4-.29.36.36 0 00-.22.07l-.05.04v-.07a.38.38 0 00-.1-.28.44.44 0 00-.4-.13h-.05l.02-.04a.46.46 0 00-.05-.36.44.44 0 00-.3-.2l-.04-.01.02-.04a.46.46 0 00-.17-.63l-.03-.03.04-.02a.44.44 0 00.18-.33.38.38 0 00-.12-.31l-.04-.04.05-.01a.42.42 0 00.25-.22.46.46 0 000-.38l-.02-.04h.05a.41.41 0 00.32-.14.44.44 0 00.11-.34v-.05l.04.01a.56.56 0 00.15.02.42.42 0 00.43-.34V4.5l.05.03a.5.5 0 00.3.1.41.41 0 00.35-.2l.03-.06.03.05a.41.41 0 00.37.2.42.42 0 00.28-.1l.04-.04v.05a.44.44 0 00.43.34.43.43 0 00.17-.03l.05-.03-.01.06a.4.4 0 00.09.34.44.44 0 00.32.16.24.24 0 00.05 0l.04.04a.42.42 0 00-.03.36.41.41 0 00.3.25l.05.02-.05.03a.4.4 0 00-.14.35.38.38 0 00.2.3l.06.03-.06.03a.4.4 0 00-.25.27.45.45 0 00.06.39l.04.04H14a.4.4 0 00-.3.18.42.42 0 00-.05.39l.02.06-.07-.01a.36.36 0 00-.14-.03.42.42 0 00-.42.41v.07L13 8.5a.3.3 0 00-.2-.07.44.44 0 00-.4.26l-.02.05-.03-.04a.45.45 0 00-.33-.15.46.46 0 00-.34.17zm-.42-.4a.49.49 0 01.44.3.51.51 0 01.36-.16.5.5 0 01.34.14.51.51 0 01.44-.26.38.38 0 01.19.05.49.49 0 01.47-.42.42.42 0 01.11.01.48.48 0 01.37-.58.5.5 0 01-.04-.4.47.47 0 01.23-.28.45.45 0 01-.18-.32.46.46 0 01.12-.37.46.46 0 01-.28-.27.49.49 0 010-.36.5.5 0 01-.37-.19.46.46 0 01-.11-.33.48.48 0 01-.15.02.5.5 0 01-.46-.34.5.5 0 01-.28.08.5.5 0 01-.4-.18.48.48 0 01-.4.2.55.55 0 01-.28-.08.49.49 0 01-.48.34.6.6 0 01-.12-.01.5.5 0 01-.13.35.48.48 0 01-.33.16.5.5 0 01-.01.38.48.48 0 01-.25.23.45.45 0 01.1.33.51.51 0 01-.17.35.5.5 0 01.18.65.49.49 0 01.3.22.52.52 0 01.06.36.5.5 0 01.4.16.44.44 0 01.12.27.43.43 0 01.2-.05z" class="cls-11" transform="translate(-.1 -.1)"/>
  <path d="M12.02 9.45a.5.5 0 01-.44-.3.47.47 0 01-.34.14.48.48 0 01-.48-.42.56.56 0 01-.22.04.47.47 0 01-.36-.16.52.52 0 01-.1-.43.48.48 0 01-.47-.71.5.5 0 01-.36-.35.47.47 0 01.15-.47.49.49 0 01-.23-.43.52.52 0 01.3-.45.47.47 0 01.34-.77.53.53 0 01.05-.46.5.5 0 01.53-.2.45.45 0 01.1-.3.48.48 0 01.38-.2.53.53 0 01.29.1.47.47 0 01.45-.35.52.52 0 01.4.2.5.5 0 01.41-.22.44.44 0 01.45.36.47.47 0 01.76.42.35.35 0 01.15-.03.53.53 0 01.42.22.47.47 0 01.04.44.46.46 0 01.43.28.51.51 0 01-.07.52.51.51 0 01.3.39.47.47 0 01-.24.5.48.48 0 01.16.5.5.5 0 01-.37.34.52.52 0 010 .5.51.51 0 01-.44.23h-.05a.57.57 0 01-.13.42.45.45 0 01-.34.16.56.56 0 01-.22-.05.47.47 0 01-.47.41.57.57 0 01-.36-.13.48.48 0 01-.42.27zm-.43-.4l.02.04a.46.46 0 00.41.3.43.43 0 00.39-.27l.01-.04.03.03a.52.52 0 00.35.15.42.42 0 00.42-.4v-.04l.04.01a.43.43 0 00.52-.07.52.52 0 00.12-.41V8.3h.03a.47.47 0 00.47-.2.48.48 0 00-.01-.47l-.02-.04h.04a.42.42 0 00.18-.77l-.03-.03.04-.02a.43.43 0 00.25-.46.43.43 0 00-.3-.35h-.06l.03-.05a.46.46 0 00.1-.5.4.4 0 00-.42-.24h-.05l.02-.04a.43.43 0 00-.01-.43.47.47 0 00-.38-.2.25.25 0 00-.16.05l-.05-.02a.45.45 0 00-.09-.38.42.42 0 00-.32-.13.37.37 0 00-.29.12l-.05-.02a.38.38 0 00-.4-.36.43.43 0 00-.38.22l-.02.04L12 4a.48.48 0 00-.37-.2.4.4 0 00-.4.34l-.01.05-.04-.03a.49.49 0 00-.3-.1.42.42 0 00-.32.15.38.38 0 00-.08.31v.05h-.04a.45.45 0 00-.51.14.47.47 0 00-.04.45l.02.04h-.05a.43.43 0 00-.4.25.43.43 0 00.09.45l.03.03-.04.02a.47.47 0 00-.3.42.43.43 0 00.24.39l.04.02-.04.03a.42.42 0 00-.16.44.44.44 0 00.35.31h.04l-.02.04a.45.45 0 00-.02.46.45.45 0 00.46.2h.04l-.01.03a.48.48 0 00.08.42.4.4 0 00.31.14.5.5 0 00.23-.05l.04-.03v.05a.43.43 0 00.42.41.4.4 0 00.33-.15zm2.26 3.54h-3.64v3.82a.33.33 0 00.33.34h1.3a.05.05 0 01.04.02l.16.23.16-.23a.05.05 0 01.04-.02h1.3a.33.33 0 00.33-.34V12.6zm-.55 4.09v-2.65h.21v2.65zm-.07 0h-.2v-2.66h.2zm-.81-2.65v2.64h-.21v-2.64zm.07-.02h.2v2.67h-.2zm.48.02v2.64h-.21v-2.64zm-2.7-.06v-1.31h3.54v1.3zm1.6 2.7h-.2v-2.64h.2zm-.27 0h-.2v-2.66h.2zm-.81-2.65v2.65h-.21v-2.64zm.06-.01h.2v2.66h-.2zm.48.01v2.65h-.2v-2.64zm-1.05 2.38V14h.23v2.67a.27.27 0 01-.24-.26zm1.77.48l-.1-.15v-2.71h.2v2.72zm1.53-.21V14h.24v2.4a.27.27 0 01-.24.27z" class="cls-11" transform="translate(-.1 -.1)"/>
  <path d="M14.37 18.7l-.01-.07a2.96 2.96 0 00-1.3-1.56v-.01c.03-.11-.08-.25-.18-.35h-.1a.18.18 0 01.02.1.04.04 0 01-.02.03c-.05.04-.19-.04-.25-.1l-.04-.03h-.03l.02.07c.03.12.05.3 0 .33-.13.04-.2-.09-.22-.15l-.05-.13v.13c-.02.11-.08.36-.17.36s-.15-.24-.17-.36l-.02-.14-.08.15a.33.33 0 01-.13.14.1.1 0 01-.08 0 .05.05 0 01-.02-.03.5.5 0 01.05-.29l.03-.08h-.03l-.05.04a.43.43 0 01-.22.1.03.03 0 01-.02 0c-.03-.05 0-.1.04-.14h-.17c-.13.1-.27.24-.2.37a.1.1 0 00.01.02 2.91 2.91 0 00-1.25 1.53l-.02.06.06-.03a3.12 3.12 0 00.68-.38 2.06 2.06 0 00-.36.89v.06l.05-.03a3 3 0 00.7-.57 2.08 2.08 0 00-.16.96l.01.06.05-.04a3.07 3.07 0 00.52-.64 2 2 0 00.06.9l.02.06.04-.05a3.1 3.1 0 00.35-.71 1.8 1.8 0 00.27 1l.03.03.03-.03a1.96 1.96 0 00.27-1.16 2.93 2.93 0 00.4.87l.03.05.03-.06a2 2 0 00.06-.9 3.07 3.07 0 00.52.64l.05.04v-.06a2.08 2.08 0 00-.16-.96 3 3 0 00.7.57l.05.03v-.06a2.06 2.06 0 00-.35-.9 3.12 3.12 0 00.67.4zm-1.55-1.8a.11.11 0 00.05-.08.14.14 0 000-.03c.08.09.14.18.12.24 0 .03-.02.04-.03.04-.05 0-.15-.07-.23-.16a.13.13 0 00.1-.02zm-.26-.06l.03.02c.07.08.23.3.21.43a.08.08 0 01-.03.06.04.04 0 01-.04 0c-.06 0-.14-.1-.2-.2.06-.06.05-.2.03-.3zm-.3.24a.23.23 0 00.2.1c.06.16.12.37.01.43a.06.06 0 01-.05.01c-.08-.03-.16-.23-.21-.4a.9.9 0 00.04-.14zm-.38.17c.04.08.1.13.16.13a.14.14 0 00.1-.05.72.72 0 01-.04.43.1.1 0 01-.09.05.1.1 0 01-.08-.04.84.84 0 01-.04-.51zm-.3-.07a.16.16 0 00.1-.02.36.36 0 00.14-.14.9.9 0 00.02.1v.01c-.03.16-.1.4-.2.46a.08.08 0 01-.08 0 .1.1 0 01-.05-.06.63.63 0 01.07-.35zm-.17-.25l.04-.04.04-.03a.4.4 0 00-.01.24.12.12 0 00.02.04c-.07.1-.16.2-.22.2a.04.04 0 01-.03-.01.1.1 0 01-.04-.09.6.6 0 01.19-.3zm-.17-.18a.13.13 0 000 .13.1.1 0 00.07.04c-.1.08-.2.15-.26.14a.03.03 0 01-.02-.01c-.04-.08.07-.2.2-.3zM9.8 18.58a3.21 3.21 0 011.24-1.45.3.3 0 00.14-.04.35.35 0 00-.05.16.17.17 0 00.05.13l-.08.1a4.83 4.83 0 00-.5.57 2.39 2.39 0 01-.08.07 2.82 2.82 0 01-.72.46zm1-.03a2.82 2.82 0 01-.65.56 3.3 3.3 0 011.11-1.7h.02a.35.35 0 00.17-.12.5.5 0 00-.03.24 5.06 5.06 0 00-.5.85l-.12.17zm.43.28a2.82 2.82 0 01-.51.69 3.32 3.32 0 01.73-1.91.15.15 0 00.06.04.15.15 0 00.09.02 4.92 4.92 0 00-.34 1.1.32.32 0 01-.02.06zm.47.1l-.01.07a2.82 2.82 0 01-.35.78 3.42 3.42 0 01.35-2.16.48.48 0 00.1-.16.78.78 0 00.04.28 6.37 6.37 0 00-.12 1.2zm.3 1.15a3.34 3.34 0 01-.12-2.26.16.16 0 00.11.05.17.17 0 00.14-.07l.02-.02a3.64 3.64 0 01-.14 2.3zm.72-.3a2.82 2.82 0 01-.35-.78 4.78 4.78 0 01-.07-.4 8.24 8.24 0 00-.1-.95 1 1 0 00.02-.2.43.43 0 00.17.23h.02a3.37 3.37 0 01.31 2.1zm.62-.26a2.81 2.81 0 01-.52-.69l-.03-.06a4.9 4.9 0 00-.32-1.08.14.14 0 00.03-.02.19.19 0 00.07-.1 3.35 3.35 0 01.77 1.95zm.56-.41a2.82 2.82 0 01-.65-.56l-.12-.17a5.16 5.16 0 00-.55-.91.62.62 0 00-.02-.14.3.3 0 00.14.1.11.11 0 00.09-.02 3.3 3.3 0 011.12 1.7zm-.36-.99a2.39 2.39 0 01-.08-.07 4.84 4.84 0 00-.5-.57l-.12-.14a.17.17 0 00.01-.04.43.43 0 00-.06-.23.24.24 0 00.17.06.1.1 0 00.03-.01 3.23 3.23 0 011.27 1.46 2.82 2.82 0 01-.72-.46zm2.9-1.4a.6.6 0 01.01-.17l.05-.08a.1.1 0 00-.07-.12c-.1-.04-.13.03-.13.1a.49.49 0 00.02.15c.02.07.05.07.11.13z" class="cls-11" transform="translate(-.1 -.1)"/>
  <path d="M17.46 16.9a1.51 1.51 0 00-.28-.32l-.1-.1-.01-.02c-.06-.06-.1-.1-.3-.09a.26.26 0 00-.14-.2.44.44 0 00-.36 0 .26.26 0 00-.15.17.4.4 0 00.02.3h-.44v-.03c-.02-.14-.25-.3-.4-.37a.89.89 0 00-.53-.44l-.09-.03a.1.1 0 000-.03 1.09 1.09 0 00-.83-.31v.96a.3.3 0 01-.12.24.2.2 0 00.08-.04.19.19 0 00.06-.16l.01-.94a1.03 1.03 0 01.73.28v.01a.86.86 0 01-.45.03l-.22-.02.2.08c.17.07.4.22.39.3s-.28.07-.4.04l-.25-.04.22.1c.1.05.38.21.35.34 0 .07-.26.08-.5.05l-.14-.02.12.08c.16.1.38.29.36.36 0 .02-.04.04-.1.05a1.23 1.23 0 01-.92-.44h-.09a1.31 1.31 0 00.96.5.53.53 0 00.07 0 .29.29 0 00.07-.01.95.95 0 00.1.05 1.18 1.18 0 00.4.11.24.24 0 00.1-.02.13.13 0 00.03-.02.52.52 0 00.12.03h.09a.53.53 0 00.36-.1.15.15 0 00.04-.07l.63-.01a.2.2 0 000 .04.3.3 0 00.16.3.78.78 0 01.12.13.58.58 0 00.2.18.23.23 0 00.08.01.33.33 0 00.24-.1.3.3 0 00.04-.22.48.48 0 00.06 0 .22.22 0 00.17-.06.25.25 0 00.04-.26h.02a.17.17 0 00.15-.07.23.23 0 00.03-.2zm-1.27-.54a.2.2 0 01.11-.12.37.37 0 01.3 0 .19.19 0 01.1.15.18.18 0 00-.08.07.33.33 0 00-.15.11.32.32 0 01.11.03.23.23 0 00.04.13.2.2 0 00-.06.04.27.27 0 00-.17-.02l-.15-.09s-.1-.08-.05-.3zm-.87 0v-.02c.14.08.3.2.32.3a.08.08 0 01-.04.08.54.54 0 01-.42.06c0-.12-.14-.27-.3-.39.16.06.32.1.4.05a.1.1 0 00.04-.08zm-.98-.45a.54.54 0 00.32-.06l.1.03c.16.06.5.25.5.48a.03.03 0 01-.02.03c-.09.05-.43-.08-.64-.19.02-.1-.13-.22-.26-.29zm-.06.4a.44.44 0 00.28-.05c.23.14.57.39.55.52a.04.04 0 01-.02.04c-.1.06-.44-.05-.62-.12a.1.1 0 00.05-.06c.03-.13-.12-.25-.23-.32zm.6.93a.05.05 0 01-.03.04.77.77 0 01-.44-.1.68.68 0 01-.07-.03.1.1 0 00.02-.04c.03-.1-.15-.26-.28-.36a.98.98 0 00.3-.01c.22.12.55.37.5.5zm.56-.05a.55.55 0 01-.4.08.42.42 0 01-.1-.02c.04-.13-.13-.3-.3-.42a.77.77 0 00.48.05.12.12 0 00.03-.03c.1.04.28.13.3.26a.1.1 0 01-.01.09zm.73-.1l-.65.02v-.01a.38.38 0 00-.18-.24.5.5 0 00.3-.09.17.17 0 00.05-.05h.52l.1.07a.32.32 0 00-.05.05h.06a.15.15 0 01.12.05l.03.04a.23.23 0 00-.01.05.31.31 0 00-.16.02.72.72 0 00-.04-.07.33.33 0 00-.04.1.2.2 0 00-.04.06zm.73.58a.24.24 0 01-.25.07.55.55 0 01-.16-.16.81.81 0 00-.14-.14c-.1-.07-.12-.08-.13-.25a.12.12 0 01.02-.07.7.7 0 00.04.1c.04.07.1.1.17.04a.12.12 0 00.02-.14.45.45 0 00-.11-.06l-.02-.01a.26.26 0 01.08-.01.13.13 0 01.06 0 3.26 3.26 0 01.38.38l.06.06a.22.22 0 01-.02.19zm.27-.27c-.05.05-.16.04-.21.03l-.05-.06a3.2 3.2 0 00-.39-.37.07.07 0 010-.02.1.1 0 00.08 0 .1.1 0 00.04-.16h-.01a.18.18 0 01.07-.03.1.1 0 01.08.02l.03.02a2.6 2.6 0 01.38.37.18.18 0 01-.02.2zm.2-.33a.12.12 0 01-.1.04.27.27 0 01-.06-.01 3.9 3.9 0 00-.36-.33l-.02-.02a.16.16 0 00-.12-.03l-.02-.02a.11.11 0 01-.03-.06.14.14 0 00.1.04c.03 0 .14-.08.07-.15a.24.24 0 00-.11-.07.14.14 0 01.06-.02c.17 0 .2.03.24.07l.01.02.1.1a1.8 1.8 0 01.27.3.17.17 0 01-.02.14zm-9.68-.34a.6.6 0 00-.01-.18l-.05-.08a.1.1 0 01.07-.12c.1-.04.12.03.13.1a.49.49 0 01-.02.15c-.02.07-.05.07-.11.13z" class="cls-11" transform="translate(-.1 -.1)"/>
  <path d="M10.86 16.71a1.23 1.23 0 01-.93.43c-.05 0-.08-.02-.09-.04-.02-.08.2-.26.36-.36l.12-.08-.14.02c-.24.03-.49.01-.5-.05-.03-.13.25-.29.35-.33l.2-.1-.22.04c-.13.02-.4.03-.4-.05s.21-.22.38-.3l.2-.08-.22.02a.86.86 0 01-.45-.03v-.01a1.02 1.02 0 01.71-.27v-.07c-.29 0-.7.15-.77.31a.1.1 0 000 .03l-.1.03a.89.89 0 00-.53.44c-.15.08-.38.23-.4.38v.02H8a.4.4 0 00.02-.3.26.26 0 00-.15-.17.44.44 0 00-.36 0 .26.26 0 00-.14.2c-.19 0-.24.04-.3.1v.01l-.1.1a1.51 1.51 0 00-.28.32.23.23 0 00.03.21.17.17 0 00.14.07h.03a.25.25 0 00.04.26.22.22 0 00.16.06.48.48 0 00.06 0 .3.3 0 00.04.21.33.33 0 00.24.11.23.23 0 00.09-.01.58.58 0 00.19-.18.78.78 0 01.13-.13.3.3 0 00.15-.3.2.2 0 000-.04l.63.01a.15.15 0 00.04.07.53.53 0 00.37.1h.08a.52.52 0 00.12-.03.13.13 0 00.04.03.24.24 0 00.1.01 1.18 1.18 0 00.4-.1.95.95 0 00.1-.06.29.29 0 00.07.02.53.53 0 00.06 0 1.31 1.31 0 00.96-.5zm-1-.4c-.13.08-.27.2-.25.33a.1.1 0 00.05.06c-.18.07-.51.18-.61.12a.04.04 0 01-.03-.04c-.02-.13.32-.38.56-.52a.44.44 0 00.27.06zm-.47-.43l.09-.03a.54.54 0 00.32.05c-.13.08-.29.19-.27.29-.2.1-.55.24-.63.2a.03.03 0 01-.02-.04c0-.23.33-.4.5-.47zm-.89.76c.02-.1.18-.22.32-.3v.01a.1.1 0 00.04.1c.08.04.24 0 .4-.05-.16.11-.3.26-.3.38a.54.54 0 01-.42-.06.08.08 0 01-.04-.08zm-.97-.4a.37.37 0 01.3 0 .2.2 0 01.11.12c.06.22-.04.3-.05.3l-.15.1a.27.27 0 00-.17.01.2.2 0 00-.06-.04.23.23 0 00.04-.13.32.32 0 01.1-.02.33.33 0 00-.14-.12.18.18 0 00-.08-.07.19.19 0 01.1-.15zm-.66.87a.12.12 0 01-.1-.04.17.17 0 01-.03-.15 1.8 1.8 0 01.27-.3l.1-.1.01-.01c.04-.05.07-.08.23-.07a.14.14 0 01.07.01.24.24 0 00-.11.07c-.07.07.04.15.06.15a.14.14 0 00.1-.03.11.11 0 01-.02.06l-.02.01a.16.16 0 00-.12.03l-.03.03a3.9 3.9 0 00-.35.32.27.27 0 01-.06.02zm.31.31c-.05.01-.17.03-.21-.02a.18.18 0 01-.03-.21 2.6 2.6 0 01.39-.37l.02-.02a.1.1 0 01.09-.02.18.18 0 01.06.03.1.1 0 00.03.17.1.1 0 00.08-.01.07.07 0 010 .02 3.2 3.2 0 00-.39.38zm.61.02a.81.81 0 00-.14.14.55.55 0 01-.17.16.24.24 0 01-.24-.07.22.22 0 01-.02-.2l.06-.05a3.26 3.26 0 01.38-.38.13.13 0 01.06 0 .26.26 0 01.07 0l-.01.01a.45.45 0 00-.1.07.12.12 0 00.01.13c.07.07.13.04.17-.04a.7.7 0 00.04-.1.12.12 0 01.02.08c-.01.17-.03.18-.13.25zm.82-.34l-.65-.01a.2.2 0 00-.05-.06.33.33 0 00-.04-.11.72.72 0 00-.03.07.31.31 0 00-.16-.02.23.23 0 00-.02-.05l.04-.03a.15.15 0 01.11-.06h.07a.32.32 0 00-.06-.04l.1-.06.02-.01h.51a.17.17 0 00.05.05.5.5 0 00.3.09.38.38 0 00-.19.24zm.58.15a.42.42 0 01-.1.02.55.55 0 01-.4-.08.1.1 0 01-.01-.08c.02-.14.2-.22.3-.26a.12.12 0 00.03.02.77.77 0 00.47-.04c-.15.12-.33.29-.3.42zm.53-.06a.77.77 0 01-.44.09.05.05 0 01-.03-.04c-.04-.13.28-.38.5-.5a.98.98 0 00.3.01c-.12.1-.3.26-.27.37a.1.1 0 00.02.03l-.08.04zM19 7.77c0-.02-.02-.05-.08-.05a5.07 5.07 0 00-2.66 1.1 6.2 6.2 0 00-1.9 1.9c-.08.18.13.43.26.57l.03.04a.67.67 0 01.13.78c-.25.77-.8.7-.94.66v.07a.86.86 0 001-.71.73.73 0 00-.14-.85l-.03-.03c-.11-.13-.32-.36-.25-.5.47-1.02 3.02-2.96 4.45-2.96h.06a11.83 11.83 0 01-2.33 1.5l-1.02.55-.02.02v.03c.07.14-.3.52-.54.72l-.03.03.02.02c.15.14.02.4.02.4l-.02.02.03.02c.24.16.13.62.13.63v.02a.68.68 0 01-.15.74v.02c-.05.46-.54.8-1.18.8v.06a1.84 1.84 0 00.19 0c.02.08.18.63.06.84a.13.13 0 01-.08.06.06.06 0 01-.06 0 .63.63 0 01-.11-.38v.31a.27.27 0 00.07.11.13.13 0 00.08.03.14.14 0 00.04 0 .2.2 0 00.12-.1.34.34 0 00.03-.08l.06.31.06.4a.52.52 0 01-.11.37l-.07.06c-.07 0-.2-.1-.28-.27v.13a.4.4 0 00.28.2.2.2 0 00.12-.08.58.58 0 00.13-.33.6.6 0 00.24.27.21.21 0 00.14.03.17.17 0 00.1-.1.73.73 0 00.06-.4.45.45 0 00.42.18.49.49 0 00.1-.48.54.54 0 00.5.13.1.1 0 00.05-.08.8.8 0 00-.08-.45.69.69 0 00.57.11.14.14 0 00.03-.1 1.01 1.01 0 00-.13-.45 1.06 1.06 0 00.5.1.12.12 0 00.08-.05.23.23 0 000-.16.84.84 0 00-.14-.34.94.94 0 00.48.02.1.1 0 00.06-.05c.04-.07-.06-.3-.18-.43a.67.67 0 00.52-.17.2.2 0 00-.02-.15.7.7 0 00-.2-.25.74.74 0 00.36-.15.16.16 0 00.06-.1c0-.1-.2-.29-.38-.34.18-.06.42-.22.43-.31a.14.14 0 00-.05-.1.78.78 0 00-.35-.18c.17-.06.37-.22.38-.33a.13.13 0 00-.05-.09.66.66 0 00-.3-.15c.19-.06.4-.25.41-.34a.13.13 0 00-.05-.1.57.57 0 00-.26-.13l.1-.03a.82.82 0 00.53-.4.1.1 0 00-.05-.09.59.59 0 00-.35-.1l.15-.07c.23-.1.42-.32.42-.43a.11.11 0 00-.05-.08.63.63 0 00-.36-.1l.04-.02c.93-.59.91-.68.9-.72zm-3.35 2.12l1-.54.15-.08a.94.94 0 01.54-.06.05.05 0 01.03.04c.02.18-.7.52-1.4.8l-.43.15a.45.45 0 00.1-.31zm-.2.42l.52-.2a1.68 1.68 0 01.85-.14.05.05 0 01.03.03c0 .1-.47.35-1.55.65l-.17.04a.27.27 0 00-.03-.05 3.37 3.37 0 00.34-.33zm-.34.75a.53.53 0 00.05-.3l.15-.04a2.8 2.8 0 011.19-.14.03.03 0 01.01.02c0 .13-.55.3-1.18.44l-.2.03zm.07.07l.15-.03a1.96 1.96 0 01.97 0 .05.05 0 01.02.04c0 .13-.32.2-.67.22h-.38a.51.51 0 00-.1-.23zm.1.7h.16a1.75 1.75 0 01.78.14.05.05 0 01.02.04.1.1 0 01-.03.08c-.15.11-.66.03-.9-.03a.57.57 0 00-.02-.23zm-.02-.07l-.01-.03a1.17 1.17 0 00.02-.29l.38-.01a1.05 1.05 0 01.57.1.04.04 0 01.01.05c-.02.13-.42.17-.78.18a4.53 4.53 0 00-.2 0zm.04.37c.26.07.8.25.88.4a.06.06 0 010 .05.1.1 0 01-.05.05 1.9 1.9 0 01-.92-.21l-.03-.02a.85.85 0 00.12-.27zm-.21.4a.79.79 0 00.05-.07l.04.02c.17.07.58.28.65.47a.12.12 0 01-.02.11.09.09 0 01-.06.04c-.16.03-.49-.17-.7-.33l-.03-.02a.77.77 0 00.06-.22zm-.1.29h.02c.2.17.5.44.52.6a.1.1 0 01-.02.08.1.1 0 01-.08.04c-.13 0-.32-.17-.47-.34l-.14-.17a.88.88 0 00.17-.21zm-.23.26l.15.17a.97.97 0 01.24.49.1.1 0 01-.04.08.08.08 0 01-.07.01c-.17-.02-.44-.37-.58-.57a1.2 1.2 0 00.3-.18zm-.66.27a1.58 1.58 0 00.3-.07c.1.2.3.62.26.77a.07.07 0 01-.03.04.1.1 0 01-.1 0c-.17-.08-.36-.54-.43-.74zm.69 1.77c-.02.04-.04.06-.05.06a.15.15 0 01-.1-.02.54.54 0 01-.24-.32 6.01 6.01 0 01-.09-.38c-.05-.36-.12-.7-.12-.7v-.03a.91.91 0 00.33.42.17.17 0 00.14 0l.02-.01a5.41 5.41 0 00.15.52.64.64 0 01-.04.46zm.51-.25a.45.45 0 01-.4-.23 2.52 2.52 0 01-.18-.57.9.9 0 00-.12-.5.93.93 0 00.43.33.16.16 0 00.06 0l.25.53a.45.45 0 01-.04.44zm.6-.34a.48.48 0 01-.46-.18 4.54 4.54 0 01-.28-.48.17.17 0 00.06-.13.58.58 0 00-.1-.29.58.58 0 00.3.15.18.18 0 00.06 0l.33.42a.64.64 0 01.09.5zm.53-.41a.7.7 0 01-.52-.15 3.9 3.9 0 01-.37-.4.18.18 0 00.02-.03.16.16 0 00.04-.13.75.75 0 00-.23-.36.72.72 0 00.4.12.18.18 0 00.05-.02c.13.13.28.28.43.4a.77.77 0 01.18.57zm.46-.62a.24.24 0 01.01.13.85.85 0 01-.58-.12 4.82 4.82 0 01-.45-.4v-.01a.19.19 0 00.02-.17.7.7 0 00-.28-.3 1.67 1.67 0 00.39.08l.46.28.23.15a.62.62 0 01.2.36zm.4-.4a.81.81 0 01-.56-.04 4.55 4.55 0 01-.24-.12l-.37-.24a.27.27 0 00.03 0 .16.16 0 00.1-.1.12.12 0 000-.1 1.01 1.01 0 00-.5-.3l.09.01 1.21.46a.7.7 0 01.24.44zm.31-.7a.19.19 0 01.03.1.65.65 0 01-.55.12c-.1-.06-.67-.27-1.05-.4a.42.42 0 00.21-.07.16.16 0 00.07-.13.1.1 0 00-.02-.07c.32.07.72.15 1.03.2a.5.5 0 01.28.25zm.23-.52s-.01.03-.05.06a.66.66 0 01-.46.14 49.68 49.68 0 01-1.43-.28c.21-.03.38-.1.4-.2a.11.11 0 000-.06l.38.02c.26 0 .53.02.74.03a.57.57 0 01.42.28zm.01-.7l.03.05a.77.77 0 01-.46.26h-.73l-.44-.02a.65.65 0 00-.26-.08c.22-.04.4-.11.4-.24a.12.12 0 000-.05l.3-.03.71-.06a.7.7 0 01.45.16zm-.02-.6l.03.04a.58.58 0 01-.39.28l-.8.1-.34.03a.86.86 0 00-.44-.05c.37-.1.7-.24.7-.38a7.16 7.16 0 01.9-.15.54.54 0 01.34.12zm.07-.59l.03.05a.7.7 0 01-.44.3 9.63 9.63 0 00-.95.18.94.94 0 00-.52-.01c.47-.16.91-.35.9-.5a.12.12 0 000-.03l.18-.04.45-.07a.5.5 0 01.35.12zm.32-.64l.02.04a.84.84 0 01-.48.33l-.67.15-.22.05a.66.66 0 00-.4 0 3.15 3.15 0 00.9-.52l.13-.05.3-.07a.54.54 0 01.42.07zm.17-.68a.05.05 0 01.02.03c0 .06-.16.27-.38.36a7.71 7.71 0 01-.55.22l-.05.02a.12.12 0 000-.06.12.12 0 00-.05-.1.59.59 0 00-.36 0c.28-.15.6-.35.92-.54h.05a.6.6 0 01.4.07zM5.98 8.5l.04.03a.63.63 0 00-.37.1.11.11 0 00-.04.08c0 .1.2.33.42.43l.14.06a.59.59 0 00-.34.11.1.1 0 00-.05.09.82.82 0 00.53.4l.1.02a.57.57 0 00-.27.13.13.13 0 00-.05.1c.01.1.23.29.42.35a.66.66 0 00-.3.15.13.13 0 00-.05.09c0 .1.2.27.38.33a.78.78 0 00-.35.18.14.14 0 00-.05.1c.01.09.25.25.43.3-.2.06-.39.25-.39.34a.16.16 0 00.07.1.74.74 0 00.36.16.7.7 0 00-.2.24.2.2 0 00-.03.16.67.67 0 00.52.16c-.11.13-.21.36-.18.43a.1.1 0 00.06.05.94.94 0 00.49-.01.84.84 0 00-.15.33.23.23 0 000 .17.12.12 0 00.09.04 1.06 1.06 0 00.5-.1 1.01 1.01 0 00-.14.45.14.14 0 00.03.1.69.69 0 00.57-.1.8.8 0 00-.07.45.1.1 0 00.04.08.54.54 0 00.5-.14.49.49 0 00.1.48.45.45 0 00.43-.18.73.73 0 00.06.4.17.17 0 00.1.1.21.21 0 00.14-.03.6.6 0 00.24-.26.58.58 0 00.12.32.2.2 0 00.12.09.4.4 0 00.28-.2v-.14c-.07.16-.2.27-.27.27-.01 0-.04-.01-.07-.06a.52.52 0 01-.11-.37 11.42 11.42 0 01.11-.71.34.34 0 00.03.08.2.2 0 00.12.1.14.14 0 00.04 0 .13.13 0 00.08-.03.27.27 0 00.08-.1v-.31a.63.63 0 01-.12.36.06.06 0 01-.06.02.13.13 0 01-.08-.07c-.11-.2.04-.76.07-.85a1.84 1.84 0 00.19.01v-.07c-.64 0-1.13-.33-1.18-.8a.68.68 0 01-.16-.75v-.02s-.1-.47.13-.63l.03-.01-.01-.03s-.14-.26.01-.4l.03-.02-.03-.03c-.25-.2-.62-.57-.55-.72v-.03l-.02-.01-1.02-.56a11.83 11.83 0 01-2.32-1.5h.05c1.43 0 3.98 1.94 4.45 2.96.07.15-.13.38-.25.5l-.03.04a.73.73 0 00-.14.84.86.86 0 001 .7v-.06c-.13.03-.69.11-.94-.66a.67.67 0 01.13-.78l.03-.03c.13-.15.35-.4.26-.58a6.2 6.2 0 00-1.9-1.9 5.07 5.07 0 00-2.66-1.1c-.05 0-.07.03-.08.05 0 .04-.02.13.9.72zm2.57 1.7a7.81 7.81 0 00-.43-.15c-.7-.27-1.42-.61-1.4-.8a.05.05 0 01.03-.04.94.94 0 01.54.06l.15.09c.58.3.9.49 1 .54a.45.45 0 00.1.3zm.43.45a.27.27 0 00-.03.05l-.17-.04c-1.08-.3-1.55-.55-1.55-.64a.05.05 0 01.03-.04 1.68 1.68 0 01.85.14l.53.2a3.37 3.37 0 00.34.33zm-.02.43a5.9 5.9 0 00-.2-.03c-.64-.13-1.2-.31-1.2-.44a.03.03 0 01.02-.02 2.8 2.8 0 011.2.14l.14.04a.53.53 0 00.05.3zm-.15.3h-.39c-.34-.03-.65-.1-.66-.23a.05.05 0 01.02-.04 1.96 1.96 0 01.97 0l.15.03a.51.51 0 00-.09.23zm-.04.7c-.24.05-.75.13-.9.01a.1.1 0 01-.04-.07.05.05 0 01.02-.04 1.75 1.75 0 01.79-.14h.15a.57.57 0 00-.02.24zm-.14-.3c-.36-.01-.76-.06-.79-.19a.04.04 0 01.01-.04 1.05 1.05 0 01.58-.11l.38.01a1.17 1.17 0 00.02.3l-.01.02a2.44 2.44 0 00-.19 0zm.27.63l-.04.02a1.9 1.9 0 01-.91.2.1.1 0 01-.06-.04.06.06 0 010-.05c.08-.16.62-.33.89-.4a.85.85 0 00.12.27zm.16.35l-.03.02c-.21.15-.54.35-.7.33a.09.09 0 01-.07-.04.12.12 0 010-.1c.06-.2.47-.4.64-.49l.04-.01.05.06a.77.77 0 00.07.23zm.2.28a3.54 3.54 0 00-.14.17c-.16.16-.34.32-.47.33a.1.1 0 01-.08-.04.1.1 0 01-.02-.07c.01-.17.31-.43.52-.6h.01a.88.88 0 00.18.21zm.35.22c-.14.2-.4.55-.58.58a.08.08 0 01-.07-.02.1.1 0 01-.03-.08.97.97 0 01.24-.49 3.01 3.01 0 00.14-.16 1.2 1.2 0 00.3.18zm-.07.84a.1.1 0 01-.09 0 .07.07 0 01-.04-.05c-.04-.15.16-.56.27-.77a1.58 1.58 0 00.3.08c-.07.2-.26.66-.44.74zm-.29.57a5.41 5.41 0 00.15-.52h.02a.17.17 0 00.14 0 .91.91 0 00.33-.41v.03l-.12.7a7.02 7.02 0 01-.09.38.54.54 0 01-.24.31.15.15 0 01-.1.03s-.03-.02-.05-.06a.64.64 0 01-.03-.46zm-.52-.25l.25-.52a.16.16 0 00.06 0 .93.93 0 00.43-.34.9.9 0 00-.12.51 2.52 2.52 0 01-.18.56.45.45 0 01-.4.24.45.45 0 01-.04-.44zm-.46-.4l.33-.42a.18.18 0 00.05 0 .58.58 0 00.3-.14.58.58 0 00-.09.29.17.17 0 00.06.12 4.54 4.54 0 01-.28.48.48.48 0 01-.47.18.64.64 0 01.1-.5zm-.44-.45l.44-.41a.18.18 0 00.05.01.72.72 0 00.4-.11.75.75 0 00-.24.36.16.16 0 00.04.13.18.18 0 00.02.02 3.9 3.9 0 01-.37.4.7.7 0 01-.52.15.77.77 0 01.19-.55zm-.44-.42l.23-.14.47-.28a1.67 1.67 0 00.38-.08.7.7 0 00-.28.3.19.19 0 00.02.16v.01a4.82 4.82 0 01-.45.4.85.85 0 01-.58.12.24.24 0 01.01-.12.62.62 0 01.2-.37zm-.37-.47l1.22-.46h.1a1.01 1.01 0 00-.5.3.12.12 0 000 .1.16.16 0 00.08.08.27.27 0 00.04.01l-.37.24-.24.12a.81.81 0 01-.56.04.7.7 0 01.24-.43zm-.26-.54c.3-.04.7-.12 1.03-.19a.1.1 0 00-.02.06.16.16 0 00.06.14.42.42 0 00.21.06c-.38.14-.95.35-1.04.4a.65.65 0 01-.56-.1.19.19 0 01.03-.11.5.5 0 01.3-.25zm-.1-.55l.74-.03.38-.01a.11.11 0 000 .05c.02.11.2.17.4.2-.27.06-.92.2-1.43.28a.66.66 0 01-.46-.14l-.05-.06a.57.57 0 01.42-.28zm.02-.58l.72.06.3.03a.12.12 0 000 .05c0 .13.17.2.4.25a.65.65 0 00-.27.08l-.43.02a9.86 9.86 0 01-.73 0 .77.77 0 01-.47-.27s0-.03.03-.05a.7.7 0 01.45-.17zm-.09-.56a7.16 7.16 0 01.91.15c0 .15.33.28.7.38a.86.86 0 00-.44.06l-.35-.04-.8-.1a.58.58 0 01-.39-.27l.04-.05a.54.54 0 01.33-.13zm-.05-.57c.12 0 .28.04.44.07l.2.04a.12.12 0 00-.02.02c0 .15.44.34.91.5a.94.94 0 00-.53.01 9.63 9.63 0 00-.94-.18.7.7 0 01-.44-.3s0-.02.03-.05a.5.5 0 01.35-.12zm-.25-.6l.3.07.13.05a3.15 3.15 0 00.9.52.66.66 0 00-.4 0L7 9.87l-.68-.15a.84.84 0 01-.48-.34l.03-.03a.54.54 0 01.42-.08zm-.2-.68h.06c.31.2.64.4.92.55a.59.59 0 00-.36 0 .12.12 0 00-.06.1.12.12 0 000 .05l-.05-.01a7.71 7.71 0 01-.55-.22c-.22-.1-.38-.3-.38-.36a.05.05 0 01.03-.03.6.6 0 01.4-.08zm7.62 4.02a2.85 2.85 0 00-.28-.55l-.04-.1a.22.22 0 00-.02-.06.38.38 0 00-.05-.07 1.75 1.75 0 01-.15-.87 1.45 1.45 0 00.01-.38.5.5 0 010-.18.36.36 0 01.1-.1l.03-.02-.02-.03a1.81 1.81 0 00-1.09-.45c-.63-.07-.8.1-.84.17a.77.77 0 00-.55.28.43.43 0 00.03.42l.03.05.03-.04a.26.26 0 01.17-.1.69.69 0 01-.03.47l-.02.03c-.11.18-.31.51-.09.79a1.19 1.19 0 00-.11.16.64.64 0 00-.07.14l-.04.03c-.3.28-.34.37-.34.41v.04h3.36zm-2.45-.48v-.03a.96.96 0 00.35-.28.46.46 0 000 .28.11.11 0 00.03.03c-.03.12-.13.36-.27.35-.1 0-.12-.26-.11-.35zm2.1-.07c.05.15.1.32.05.38a.05.05 0 01-.05.02c-.15 0-.27-.35-.31-.48v-.01a.29.29 0 00.15.1.18.18 0 00.16 0zM11 10.53h.01l.04-.01a.3.3 0 00-.05.01zm-.02-.06a.27.27 0 00-.12.1.33.33 0 010-.28c.12-.22.51-.25.52-.25h.02v-.02s.1-.23.78-.15a1.87 1.87 0 011.02.4.35.35 0 00-.08.09.46.46 0 00-.02.22 1.4 1.4 0 010 .36 1.72 1.72 0 00.16.93c.06.06.07.11.06.13s-.04.03-.11.01c-.12-.02-.22-.25-.25-.33l-.05-.18-.01.18c0 .1-.04.37-.15.39-.08 0-.17-.21-.21-.37l-.04-.16-.03.16c-.02.16-.08.4-.16.4-.12-.02-.19-.3-.2-.4l-.01-.14-.05.12c-.05.12-.2.43-.35.41a.04.04 0 01-.03-.02.66.66 0 01.04-.37l.06-.18-.12.15c-.14.17-.38.41-.46.36a.07.07 0 01-.02-.05c0-.07.02-.25.42-.61.18-.17.29-.3.24-.47-.02-.1-.14-.18-.28-.24l-.02-.1a2.65 2.65 0 01.3.11l.05.03v-.06a.37.37 0 00-.31-.31l-.02.06a.33.33 0 01.25.2 1.04 1.04 0 00-.82-.12zm2.01 1.42v.1c-.02.2-.08.48-.16.48-.16 0-.19-.3-.19-.3v-.1a.15.15 0 00.13.06c.12-.01.17-.18.2-.31a.33.33 0 00.02.07zm-.39.13l-.03.14c-.02.08-.1.34-.2.34s-.17-.26-.19-.4v-.02a.18.18 0 00.13.08c.12 0 .18-.18.2-.32a.92.92 0 00.09.18zm-.46 0l-.03.08c-.02.11-.12.4-.26.4-.09 0-.13-.21-.13-.34.15 0 .28-.22.34-.36a.88.88 0 00.08.21zm-.7-.84a.8.8 0 00.11-.45c.11.06.2.12.22.18.03.12-.03.23-.22.4a2.73 2.73 0 00-.23.23.6.6 0 01.12-.36zm-.37-.06l.02-.03a.8.8 0 00.03-.58.76.76 0 01.35.04.89.89 0 01-.08.6.64.64 0 00-.13.41l-.3.25c-.16-.24 0-.52.11-.69zm-.2.95a1.36 1.36 0 01.33-.36.46.46 0 00-.1.27.13.13 0 00.05.1.1.1 0 00.05.02v.02c-.04.1-.15.34-.28.34a.12.12 0 01-.1-.06.36.36 0 01.05-.34zm-.42.52a1.62 1.62 0 01.28-.31.29.29 0 00.03.15.19.19 0 00.15.1c.13 0 .23-.13.29-.24.01.11.05.25.17.26.15 0 .24-.15.3-.27.01.13.06.29.18.29.14 0 .24-.19.29-.32.03.13.1.32.22.32s.2-.16.24-.27c.03.11.1.24.23.24s.18-.23.2-.4c.06.16.17.38.33.38a.12.12 0 00.1-.05.29.29 0 00.02-.19l.14.3z" class="cls-11" transform="translate(-.1 -.1)"/>
  <path d="M1.37 9.44l.23-.74a.69.69 0 01.14-.26.61.61 0 01.3-.17.72.72 0 01.4.02.86.86 0 01.3.17.54.54 0 01.15.2.64.64 0 01.05.26 1.01 1.01 0 01-.06.28l-.2.66-.08-.02.06-.14a.13.13 0 000-.07.06.06 0 00-.03-.04l-1.06-.34a.06.06 0 00-.05 0 .1.1 0 00-.04.06l-.05.15zm.23-.5a.1.1 0 000 .07.07.07 0 00.04.04l1.05.34a.06.06 0 00.06-.01.16.16 0 00.04-.08l.04-.12a.55.55 0 00.01-.31.34.34 0 00-.1-.17.91.91 0 00-.33-.17.8.8 0 00-.53-.03.4.4 0 00-.23.28zm.36-1.22l.53-1.06.43.19-.03.06a.59.59 0 00-.33-.03.3.3 0 00-.18.17l-.14.26a.07.07 0 000 .05.07.07 0 00.04.04l.44.23.05-.12a.22.22 0 00.02-.18.31.31 0 00-.16-.15l.03-.06.57.28-.03.07a.34.34 0 00-.24-.04.23.23 0 00-.14.12l-.05.1.5.25a.05.05 0 00.04 0 .13.13 0 00.05-.06l.1-.2q.17-.34-.2-.59l.04-.06.45.25-.56 1.1-.06-.03.05-.09a.14.14 0 00.02-.08.07.07 0 00-.04-.05l-.98-.49a.07.07 0 00-.06 0 .1.1 0 00-.04.04l-.06.11zm.77-1.5l.42-.6a.6.6 0 01.3-.24.33.33 0 01.3.05.3.3 0 01.15.24.67.67 0 01-.14.4l-.15.22.39.27a.07.07 0 00.06.02.12.12 0 00.06-.05l.1-.14.06.04-.41.59-.06-.04.09-.12a.1.1 0 00.02-.07.05.05 0 00-.02-.04L3 6.12a.07.07 0 00-.07-.01.18.18 0 00-.07.07l-.06.09zm.82.04l.12-.17a.42.42 0 00.1-.27.31.31 0 00-.15-.21.36.36 0 00-.17-.08.23.23 0 00-.15.04.69.69 0 00-.16.18.31.31 0 00-.07.13.08.08 0 00.04.06zm.41-1.75l.05-.05 1.28.5a.13.13 0 00.15-.05l.03-.03.05.05-.41.43-.05-.05.03-.04a.33.33 0 00.08-.1.04.04 0 00-.01-.05.1.1 0 00-.03-.02l-.3-.11-.41.42.07.17a.3.3 0 00.06.1.1.1 0 00.09.01.23.23 0 00.11-.07l.04-.04.05.05-.38.4-.05-.06a.24.24 0 00.07-.12.3.3 0 00-.03-.16zm.17.2l.26.63.37-.38zm.67-.98l.62-.46a.56.56 0 01.34-.13.3.3 0 01.25.12.28.28 0 01.05.16.34.34 0 01-.04.18.95.95 0 01-.2.22.74.74 0 01.2-.06.27.27 0 01.12.02 1 1 0 01.2.14.5.5 0 00.15.1.06.06 0 00.1-.08.34.34 0 00-.07-.14l.05-.04q.18.27-.01.4a.23.23 0 01-.12.05.21.21 0 01-.13-.03 1.38 1.38 0 01-.2-.18.46.46 0 00-.14-.12.23.23 0 00-.14 0 .4.4 0 00-.15.07l-.1.08.33.43a.06.06 0 00.04.03.13.13 0 00.07-.03l.12-.09.04.06-.56.41-.04-.05.12-.09a.12.12 0 00.04-.06.06.06 0 000-.05l-.66-.89a.06.06 0 00-.05-.03.12.12 0 00-.07.03l-.11.09zm.75.24l.14-.1a.53.53 0 00.19-.22.24.24 0 00-.05-.24.34.34 0 00-.14-.12.2.2 0 00-.13 0 .81.81 0 00-.2.12.4.4 0 00-.12.1.06.06 0 00.01.06zm.7-1.22l1.07-.57.27.44-.06.04q-.28-.38-.54-.24a.13.13 0 00-.06.05.08.08 0 00.01.07l.52.97a.06.06 0 00.04.04.12.12 0 00.07-.02l.13-.07.03.06-.6.33-.04-.07.15-.08a.08.08 0 00.04-.04.05.05 0 000-.05l-.53-.98a.06.06 0 00-.05-.04.12.12 0 00-.07.02.3.3 0 00-.16.23.74.74 0 00.05.35l-.06.03zm1.39-.72l.47-.16.77.9.04-1.17.48-.16.02.06-.12.04a.15.15 0 00-.07.05.07.07 0 000 .06l.34 1.04a.06.06 0 00.04.04.18.18 0 00.1-.01l.1-.04.03.07-.65.21-.02-.06.12-.04a.14.14 0 00.07-.04.06.06 0 00.01-.06L9 1.65l-.05 1.4-.07.02L7.97 2l.31.95a.29.29 0 00.07.12.17.17 0 00.08.05.38.38 0 00.15-.02l.03.06-.54.18-.02-.07a.3.3 0 00.16-.11.22.22 0 000-.17l-.3-.9a.06.06 0 00-.04-.05.16.16 0 00-.09.02l-.12.04zm2.11-.65l1.17-.17.1.45-.07.01a.59.59 0 00-.17-.28.3.3 0 00-.24-.06l-.28.05a.06.06 0 00-.06.08l.07.49.12-.02a.22.22 0 00.16-.1.31.31 0 00.04-.21l.07-.01.09.63-.07.01a.34.34 0 00-.1-.21.23.23 0 00-.18-.05l-.12.02.08.55a.05.05 0 00.03.04.13.13 0 00.07 0l.23-.03q.37-.06.37-.5l.07-.01.05.51-1.22.18v-.07l.1-.01a.14.14 0 00.07-.03.07.07 0 00.02-.06l-.17-1.09a.07.07 0 00-.03-.05.1.1 0 00-.07 0l-.12.01zm1.58-.22h.36l.88 1.1.01-.78a.23.23 0 00-.05-.18.23.23 0 00-.16-.05v-.07h.52v.07a.27.27 0 00-.12.02.17.17 0 00-.07.08.24.24 0 00-.03.11l-.02 1.1h-.1l-.9-1.14-.02.83a.22.22 0 00.06.17.28.28 0 00.19.07v.06h-.57v-.08a.24.24 0 00.17-.06.2.2 0 00.06-.15l.02-.94-.02-.01a.32.32 0 00-.07-.06.18.18 0 00-.07-.02h-.07zm1.82.06l1.2.2-.05.51-.07-.01q0-.47-.28-.51a.13.13 0 00-.08 0 .08.08 0 00-.03.06l-.18 1.1a.06.06 0 00.01.04.12.12 0 00.07.03l.15.02-.02.07-.68-.1.01-.08.17.03a.08.08 0 00.05 0 .05.05 0 00.03-.05l.18-1.1a.06.06 0 00-.01-.06.12.12 0 00-.07-.03.3.3 0 00-.27.09.74.74 0 00-.16.31l-.08-.01zm2.77.65a.71.71 0 01.3.21.66.66 0 01.15.34.79.79 0 01-.27.7.67.67 0 01-.34.14.7.7 0 01-.35-.04.66.66 0 01-.28-.2.68.68 0 01-.15-.34.75.75 0 01.05-.38.74.74 0 01.22-.31.67.67 0 01.33-.15.66.66 0 01.34.03zm-.01.07a.39.39 0 00-.35.03.79.79 0 00-.3.42.79.79 0 00-.06.52.4.4 0 00.23.24.4.4 0 00.24.03.43.43 0 00.22-.14.98.98 0 00.18-.32 1.1 1.1 0 00.1-.38.42.42 0 00-.08-.25.4.4 0 00-.18-.15zm.98.38l1.05.6-.22.42-.06-.04a.6.6 0 00.04-.34.4.4 0 00-.19-.21l-.21-.12a.07.07 0 00-.05 0 .06.06 0 00-.04.02l-.25.44.11.06a.23.23 0 00.18.03.3.3 0 00.16-.14l.07.04-.31.54-.06-.04a.35.35 0 00.05-.23.22.22 0 00-.12-.14l-.11-.06-.26.46a.08.08 0 00-.01.06.14.14 0 00.06.06l.13.08-.03.06-.62-.36.04-.06.13.08a.1.1 0 00.06.02.07.07 0 00.05-.04l.54-.96a.06.06 0 00.01-.05.12.12 0 00-.05-.05l-.13-.08zm2.37 1.76l.14-.03.06.05-.32.39-.05-.05a.67.67 0 00.08-.37.42.42 0 00-.15-.27.32.32 0 00-.21-.09.23.23 0 00-.18.09.21.21 0 00-.05.1.23.23 0 00.02.13 1.14 1.14 0 00.14.2 1.5 1.5 0 01.2.3.37.37 0 01.02.2.33.33 0 01-.08.18.4.4 0 01-.3.14.5.5 0 01-.34-.13.62.62 0 01-.22-.37l-.17.03-.05-.05.35-.4.05.04a.6.6 0 00-.08.39.5.5 0 00.17.31.36.36 0 00.23.1.25.25 0 00.2-.09.2.2 0 00.05-.1.26.26 0 00-.03-.15 1.83 1.83 0 00-.17-.25.95.95 0 01-.18-.32.32.32 0 01.08-.28.39.39 0 01.3-.15.45.45 0 01.31.12.52.52 0 01.12.14.64.64 0 01.06.2zm.48.3l.8.9-.37.37-.04-.05q.3-.36.1-.57a.13.13 0 00-.07-.05.08.08 0 00-.06.02l-.82.74a.06.06 0 00-.03.05.12.12 0 00.04.06l.1.11-.05.05-.47-.52.06-.05.11.13a.08.08 0 00.05.03.05.05 0 00.04-.01l.84-.75a.06.06 0 00.02-.05.12.12 0 00-.03-.07.3.3 0 00-.26-.1.74.74 0 00-.33.13l-.05-.05zm1.36 1.66l.04.05-.76 1.15a.13.13 0 000 .15l.04.04-.06.04-.33-.5.06-.04.02.04a.33.33 0 00.1.1.04.04 0 00.04 0 .1.1 0 00.02-.03l.18-.26-.33-.5-.17.04a.3.3 0 00-.1.04.1.1 0 00-.04.08.23.23 0 00.04.13l.03.04-.06.04-.3-.45.06-.04a.24.24 0 00.1.1.3.3 0 00.16 0zm-.24.12l-.66.11.3.44zm.74.73l.52 1.1-.46.25-.03-.06q.38-.26.26-.52a.13.13 0 00-.05-.07.08.08 0 00-.07.01l-1 .47a.06.06 0 00-.03.04.12.12 0 00.01.07l.07.14-.07.03-.3-.63.07-.03.07.15a.08.08 0 00.04.05.05.05 0 00.04 0l1.03-.49a.06.06 0 00.04-.04.12.12 0 00-.02-.08.3.3 0 00-.22-.16.74.74 0 00-.35.03l-.03-.07zm.64 1.42l.35 1.13-.44.17-.02-.07a.59.59 0 00.26-.21.3.3 0 00.02-.24l-.09-.28a.06.06 0 00-.09-.05l-.47.14.04.13a.22.22 0 00.11.14.31.31 0 00.22 0l.02.06-.6.19-.03-.07a.34.34 0 00.2-.13.23.23 0 00.01-.19l-.03-.1-.53.15a.05.05 0 00-.03.04.13.13 0 000 .07l.07.22q.11.36.55.29l.02.07-.5.12-.36-1.17.07-.02.03.1a.14.14 0 00.04.07.07.07 0 00.06 0l1.05-.31a.07.07 0 00.05-.04.1.1 0 000-.07l-.04-.11z" class="cls-1" transform="translate(-.1 -.1)"/>
  <path d="M1.65 10.06l.12.36h.37l-.26.22.13.4-.33-.2-.35.21.13-.38-.3-.23.37-.01.12-.37zm20.42.2l.12.36h.37l-.26.22.13.4-.33-.2-.35.21.13-.38-.3-.23.37-.01.12-.36z" class="cls-1"/>
  <path d="M2.4 11.72l.03.61h-.07v-.12a.11.11 0 00-.02-.07.06.06 0 00-.05-.02l-.75.03a.58.58 0 00-.18.03.27.27 0 00-.14.11.38.38 0 00-.04.22.38.38 0 00.1.27.34.34 0 00.25.09l.62-.02a.5.5 0 00.12-.02.16.16 0 00.06-.03.13.13 0 00.04-.06.36.36 0 000-.1h.07l.02.5h-.07v-.04a.16.16 0 00-.05-.13.19.19 0 00-.13-.04l-.66.03a.43.43 0 01-.33-.11.52.52 0 01-.14-.37.71.71 0 01.04-.3.35.35 0 01.16-.18.46.46 0 01.2-.05l.8-.03a.06.06 0 00.05-.02.1.1 0 00.01-.06v-.13zm.09 1.64l.06.32-.86 1 .74-.16a.24.24 0 00.16-.08.2.2 0 00.02-.15l.07-.02.1.46-.07.01a.23.23 0 00-.04-.1.16.16 0 00-.08-.04.25.25 0 00-.12 0l-1.04.21-.02-.08.9-1.04-.79.17a.22.22 0 00-.15.08.24.24 0 00-.02.18l-.06.02-.1-.5.06-.02a.21.21 0 00.1.14.2.2 0 00.15.02l.88-.18.02-.02a.29.29 0 00.04-.07.16.16 0 000-.07l-.01-.06zm.36 1.54l.2.59-.06.02-.04-.1q-.02-.07-.05-.08a.1.1 0 00-.07 0l-.96.34q-.05.02-.06.04a.11.11 0 000 .08l.04.11-.06.02-.2-.58.06-.02.04.11q.02.06.04.07a.12.12 0 00.08-.01l.96-.33q.05-.02.06-.04a.15.15 0 00-.01-.1l-.03-.1zm.27.8l.47.98-.44.24-.03-.06q.38-.24.26-.48a.1.1 0 00-.04-.06.08.08 0 00-.07.01l-.96.46a.06.06 0 00-.03.04.1.1 0 00.01.06l.06.12-.06.03-.27-.56.06-.03.07.14a.07.07 0 00.03.04.05.05 0 00.04 0l.98-.47a.06.06 0 00.04-.04.1.1 0 00-.01-.07.26.26 0 00-.21-.14.76.76 0 00-.34.04l-.02-.06zm.61 1.23l.6.87-.37.28-.03-.05a.6.6 0 00.18-.27.26.26 0 00-.04-.21l-.15-.22a.06.06 0 00-.04-.03.07.07 0 00-.05.02l-.4.26.07.1a.19.19 0 00.14.08.32.32 0 00.2-.06l.03.05-.51.35-.03-.05a.35.35 0 00.14-.18.2.2 0 00-.03-.16l-.06-.1-.44.3a.05.05 0 00-.02.05.1.1 0 00.02.06l.11.17q.19.28.58.08l.03.06-.42.26-.62-.92.06-.03.05.07a.12.12 0 00.06.05.07.07 0 00.05 0l.88-.6a.07.07 0 00.04-.04.09.09 0 00-.02-.06l-.06-.1zm.79 1.14l.47.5a.57.57 0 01.13.23.57.57 0 010 .32.74.74 0 01-.22.33.9.9 0 01-.28.18.52.52 0 01-.23.03.56.56 0 01-.24-.07.85.85 0 01-.2-.16l-.41-.46.05-.04.09.09a.1.1 0 00.05.04.06.06 0 00.05-.02l.79-.73a.06.06 0 00.02-.05.08.08 0 00-.03-.05l-.1-.1zm.28.4a.09.09 0 00-.06-.04.07.07 0 00-.05.02l-.78.73a.06.06 0 00-.02.05.13.13 0 00.04.07l.08.08a.46.46 0 00.24.14.32.32 0 00.18-.01.95.95 0 00.3-.2.82.82 0 00.28-.42.35.35 0 00-.1-.31zm1.79 1.6l.13-.04.05.03-.27.4-.05-.03a.66.66 0 00.05-.36.36.36 0 00-.14-.23.27.27 0 00-.2-.06.23.23 0 00-.17.1.21.21 0 00-.04.11.21.21 0 00.03.11.96.96 0 00.13.18 1.27 1.27 0 01.2.26.32.32 0 01-.03.35.4.4 0 01-.27.18.43.43 0 01-.32-.09.53.53 0 01-.22-.32l-.15.04-.06-.03.3-.42.06.03a.59.59 0 00-.06.38.42.42 0 00.17.27.3.3 0 00.22.06.25.25 0 00.18-.1.2.2 0 00.04-.12.24.24 0 00-.03-.12 1.55 1.55 0 00-.17-.22.8.8 0 01-.18-.27.32.32 0 01.06-.28.39.39 0 01.56-.1.43.43 0 01.1.12.56.56 0 01.08.17zm.57.2l.94.54-.23.45-.05-.03q.17-.42-.06-.55a.1.1 0 00-.07-.02.08.08 0 00-.05.05l-.52.92a.06.06 0 00-.01.06.1.1 0 00.05.04l.11.07-.03.05-.54-.3.03-.06.14.08a.07.07 0 00.04 0 .05.05 0 00.04-.02l.53-.94a.06.06 0 00.01-.06.1.1 0 00-.05-.05.26.26 0 00-.25 0 .76.76 0 00-.25.23l-.06-.03zm1.58.71l.05.02.04 1.31a.11.11 0 00.09.11l.04.01-.03.07-.5-.18.03-.07.04.02a.27.27 0 00.11.02.04.04 0 00.04-.03.1.1 0 000-.03v-.3l-.5-.18-.12.13a.31.31 0 00-.06.1.1.1 0 00.02.08.2.2 0 00.1.07l.04.01-.02.06-.45-.16.02-.07a.2.2 0 00.13.01.3.3 0 00.12-.1zm-.11.23l-.43.48.44.16zm.86.11l1.06.21-.07.5-.06-.01q.03-.45-.23-.5a.1.1 0 00-.07 0 .08.08 0 00-.03.05l-.21 1.05a.06.06 0 000 .05.1.1 0 00.07.03l.13.02-.01.07-.61-.12.01-.07.15.03a.07.07 0 00.05 0 .05.05 0 00.02-.04l.21-1.06a.06.06 0 00-.01-.05.1.1 0 00-.06-.03.26.26 0 00-.24.08.76.76 0 00-.16.3l-.07-.01zm1.4.24l1.05.06v.45h-.06a.6.6 0 00-.1-.3.26.26 0 00-.2-.1l-.26-.01a.06.06 0 00-.05.01.07.07 0 00-.02.05l-.02.48h.11a.19.19 0 00.15-.05.32.32 0 00.08-.2h.06l-.03.62h-.06a.35.35 0 00-.06-.23.2.2 0 00-.15-.07h-.1l-.03.52a.05.05 0 00.02.05.1.1 0 00.06.02h.21q.34.03.4-.4h.07l-.04.5-1.1-.06v-.06h.09a.12.12 0 00.07-.02.07.07 0 00.03-.05l.05-1.06a.07.07 0 00-.02-.05.09.09 0 00-.06-.02h-.1zm2.2.08l.07-.12h.07l.05.48h-.06a.66.66 0 00-.2-.31.36.36 0 00-.26-.08.27.27 0 00-.18.09.23.23 0 00-.06.18.21.21 0 00.03.1.21.21 0 00.1.08.96.96 0 00.22.04 1.27 1.27 0 01.32.07.32.32 0 01.2.29.4.4 0 01-.1.3.43.43 0 01-.3.15.53.53 0 01-.37-.1l-.09.13-.06.01-.05-.51.07-.01a.59.59 0 00.2.32.42.42 0 00.3.1.3.3 0 00.21-.1.25.25 0 00.07-.2.2.2 0 00-.04-.1.24.24 0 00-.1-.08 1.55 1.55 0 00-.28-.06.8.8 0 01-.31-.09.32.32 0 01-.14-.25.39.39 0 01.36-.43.43.43 0 01.17.01.56.56 0 01.16.1zm1.61-.47a.6.6 0 01.33 0 .62.62 0 01.3.16.81.81 0 01.2.7.63.63 0 01-.15.3.59.59 0 01-.27.17.56.56 0 01-.31 0 .63.63 0 01-.3-.17.78.78 0 01-.18-.32.76.76 0 01-.02-.37.63.63 0 01.14-.3.56.56 0 01.26-.17zm.03.06a.34.34 0 00-.23.23 1.12 1.12 0 00.29.93.35.35 0 00.48-.07.42.42 0 00.08-.23 1.01 1.01 0 00-.06-.36 1.15 1.15 0 00-.15-.34.4.4 0 00-.2-.15.34.34 0 00-.2 0zm.86-.33l.98-.47.22.41-.06.03a.6.6 0 00-.24-.23.34.34 0 00-.26.03l-.19.09a.05.05 0 00-.03.08l.21.43.1-.05a.2.2 0 00.11-.12.3.3 0 00-.03-.2l.06-.03.26.55-.06.02a.35.35 0 00-.15-.16.19.19 0 00-.16 0l-.1.06.22.45a.08.08 0 00.04.05.12.12 0 00.08-.01l.13-.06.02.06-.57.27-.03-.06.12-.06a.09.09 0 00.05-.04.07.07 0 00-.01-.05l-.46-.96a.06.06 0 00-.04-.04.1.1 0 00-.06.01l-.12.06zm2.08-1.24l.05-.04 1.12.69a.11.11 0 00.14-.01l.03-.03.04.06-.42.32-.04-.06.03-.02a.27.27 0 00.08-.09.04.04 0 000-.04.1.1 0 00-.02-.03l-.26-.15-.42.31.05.17a.31.31 0 00.04.1.1.1 0 00.08.04.2.2 0 00.11-.05l.04-.03.04.06-.38.29-.05-.05a.2.2 0 00.08-.1.3.3 0 00-.01-.16zm.14.22l.16.62.38-.28zm.55-.7l.3-.33 1.04.43-.52-.99.3-.33.06.05-.08.08a.13.13 0 00-.04.07.07.07 0 00.03.05l.78.72a.06.06 0 00.05.02.15.15 0 00.07-.05l.07-.08.05.05-.42.45-.05-.05.08-.08a.12.12 0 00.03-.07.06.06 0 00-.01-.05l-.83-.77.62 1.19-.04.04-1.25-.51.71.66a.3.3 0 00.11.07.15.15 0 00.1 0 .32.32 0 00.1-.07l.05.04-.34.37-.05-.05a.26.26 0 00.08-.15.23.23 0 00-.1-.15l-.66-.62a.06.06 0 00-.06-.02.14.14 0 00-.06.04l-.08.09zm1.29-1.46l.58-.89.39.23-.04.05a.6.6 0 00-.3-.07.26.26 0 00-.19.13l-.14.21a.06.06 0 00-.01.05.07.07 0 00.03.05l.4.25.06-.1a.19.19 0 00.03-.16.32.32 0 00-.14-.16l.04-.05.51.34-.03.05a.35.35 0 00-.22-.07.2.2 0 00-.14.1l-.06.09.45.29a.05.05 0 00.05 0 .1.1 0 00.04-.04l.12-.17q.18-.28-.15-.56l.03-.05.4.29-.6.92-.05-.04.05-.08a.12.12 0 00.02-.07.07.07 0 00-.03-.05l-.89-.57a.07.07 0 00-.05-.02.09.09 0 00-.05.04l-.06.1zm.73-1.15l.28-.63a.48.48 0 01.22-.24.3.3 0 01.26 0 .29.29 0 01.12.1.3.3 0 01.05.16.8.8 0 01-.05.26.63.63 0 01.13-.13.25.25 0 01.12-.04 1.03 1.03 0 01.22.03.5.5 0 00.17.01.06.06 0 00.06-.03.07.07 0 00-.02-.06.35.35 0 00-.12-.09l.03-.05q.27.14.18.33a.2.2 0 01-.08.09.2.2 0 01-.12.03 1.43 1.43 0 01-.25-.07.47.47 0 00-.17-.03.2.2 0 00-.11.05.33.33 0 00-.09.12l-.05.1.48.22a.06.06 0 00.05 0 .1.1 0 00.05-.06l.05-.11.06.02-.25.57-.07-.03.06-.12a.1.1 0 000-.06.06.06 0 00-.03-.04l-.97-.44a.06.06 0 00-.05 0 .1.1 0 00-.04.05l-.06.12zm.73-.12l.06-.14a.45.45 0 00.05-.25.24.24 0 00-.16-.17.35.35 0 00-.16-.04.18.18 0 00-.12.05.68.68 0 00-.1.18.34.34 0 00-.05.13.05.05 0 00.04.05zm-.17-1.2l.19-.58.07.02-.04.1a.14.14 0 000 .09q0 .02.06.04l.96.3a.08.08 0 00.12-.06l.04-.11.06.02-.18.59-.07-.02.04-.12a.12.12 0 000-.08.12.12 0 00-.06-.04l-.97-.3q-.05-.02-.07-.01a.15.15 0 00-.05.08l-.03.1zm.55-1.75l-.12-.09.02-.05.53.08-.01.06a.87.87 0 00-.36.08.34.34 0 00-.18.24.32.32 0 00.1.3.91.91 0 00.48.2.74.74 0 00.47-.04.34.34 0 00.19-.25.38.38 0 00-.06-.3.54.54 0 00-.28-.2l.02-.05a.58.58 0 01.32.22.48.48 0 01.07.36.58.58 0 01-.14.29.6.6 0 01-.28.17.72.72 0 01-.36.02.84.84 0 01-.35-.16.65.65 0 01-.22-.26.52.52 0 01-.03-.3.48.48 0 01.06-.16.7.7 0 01.13-.16zm-.04-1.03v-.06l1.24-.43a.11.11 0 00.07-.12v-.04h.07l-.02.53h-.07v-.04a.27.27 0 00-.01-.12.04.04 0 00-.04-.02.1.1 0 00-.03 0l-.29.1-.02.53.16.07a.31.31 0 00.1.03.1.1 0 00.08-.04.2.2 0 00.04-.12v-.04h.06l-.02.48h-.06a.2.2 0 00-.03-.12.3.3 0 00-.13-.1zm.25.03l.59.27.01-.47z" class="cls-1" transform="translate(-.1 -.1)"/>
</svg>
